<?xml version="1.0" encoding="UTF-8"?> <svg xmlns="http://www.w3.org/2000/svg" id="_圖層_2" viewBox="0 0 854.39 407.74"><g id="_圖層_1-2"><g><g><path d="m601.6,87.21c.43-.31.91-.35,1.36-.43,1.94-.35,3.85-.8,5.75-1.32,4.87-1.32,9.46-3.28,13.82-5.79,2.56-1.47,5.03-3.09,7.45-4.78.31-.21.61-.44.93-.64.11-.07.26-.08.38-.11.28.3.36.67.47,1.02,1.31,3.91,2.62,7.81,3.92,11.72,1.96,5.86,3.92,11.72,5.88,17.58.04.13.08.27.13.4.07.19.2.32.38.39.35.14.7.25,1.06.38,5.45,2.02,10.79,4.28,15.95,6.97,4.41,2.3,8.65,4.87,12.61,7.9,1.56,1.2,3.07,2.47,4.52,3.8.49.45.9.94,1.25,1.51,2.16,3.51,3.63,7.28,4.4,11.32.53,2.78.69,5.57.62,8.39-.11,4.48-.96,8.83-2.21,13.12-.71,2.43-1.56,4.81-2.52,7.15-.55,1.34-.54,1.34-.53,2.86.04,4.96.07,9.93.12,14.89.04,4.26-.09,8.52-.33,12.78-.15,2.62-.38,5.23-.72,7.83-.31,2.37-.69,4.72-1.21,7.05-.61,2.7-1.4,5.34-2.51,7.88-.7,1.59-1.52,3.11-2.52,4.54-1.08,1.54-2.34,2.92-3.85,4.06-2.14,1.61-4.53,2.6-7.18,3.02-2.15.34-4.29.36-6.44.05-1.11-.16-2.22-.34-3.34-.51-.38.12-.56.47-.81.74-1.71,1.9-3.67,3.48-5.9,4.72-2.73,1.52-5.65,2.45-8.75,2.9-2.1.3-4.21.35-6.31.17-3.87-.32-7.55-1.36-10.99-3.18-.37-.2-.74-.4-1.11-.6-.04-.02-.09-.02-.13-.03-.22-.02-.34.13-.47.27-.71.75-1.39,1.53-2.12,2.25-1.5,1.49-3.14,2.81-4.91,3.97-3.35,2.18-6.99,3.63-10.98,4.02-6.91.68-12.97-1.26-17.95-6.22-1.1-1.1-2.03-2.33-2.82-3.67-.14-.24-.3-.47-.46-.7-.02-.03-.08-.03-.13-.05-.05.05-.14.1-.16.16-.06.23-.09.46-.12.69-.26,1.52-.94,2.83-1.92,4.01-.84,1.02-1.83,1.88-2.9,2.64-1.53,1.09-3.19,1.96-4.91,2.71-2.76,1.21-5.62,2.06-8.55,2.73-2.92.67-5.89,1.14-8.88,1.38-3.32.27-6.64.41-9.97.15-2.39-.18-4.76-.44-7.1-.93-1.88-.39-3.73-.91-5.5-1.68-.77-.33-1.54-.7-2.27-1.12-2.26-1.29-4.08-2.98-5.01-5.48-.02-.06-.15-.13-.2-.11-.08.02-.15.11-.19.18-.04.08-.06.18-.08.27-.41,2.07-1.38,3.86-2.73,5.47-.94,1.12-2.01,2.09-3.19,2.96-2.08,1.54-4.37,2.73-6.75,3.71-2.95,1.22-6,2.13-9.11,2.84-2.74.62-5.51,1.11-8.3,1.46-3.16.4-6.33.71-9.52.81-1.59.05-3.19.14-4.78.15-3.47.01-6.93-.1-10.39-.39-1.45-.12-2.9-.22-4.34-.38-1.54-.17-3.07-.36-4.6-.61-2.68-.43-5.35-.94-7.99-1.6-3.18-.8-6.31-1.78-9.31-3.1-1.29-.57-2.54-1.21-3.74-1.94-.88-.54-1.73-1.13-2.52-1.79-1.31-1.09-2.43-2.34-3.18-3.88-.08-.16-.2-.31-.33-.51-.14.19-.28.32-.36.48-.96,1.99-2.41,3.55-4.13,4.89-1.41,1.1-2.94,2-4.54,2.79-2.61,1.29-5.35,2.25-8.15,3.03-3.16.88-6.37,1.53-9.61,2.04-2.87.45-5.76.77-8.65,1.02-4.25.36-8.52.43-12.78.39-1.45-.01-2.91-.03-4.36-.08-2.34-.09-4.68-.23-7.01-.46-1.31-.13-2.61-.23-3.92-.38-1.58-.18-3.16-.37-4.74-.62-2.4-.38-4.8-.81-7.18-1.35-3.47-.79-6.9-1.75-10.21-3.07-1.39-.56-2.75-1.18-4.07-1.91-1.69-.93-3.29-2-4.62-3.4-.34-.36-.7-.41-1.14-.28-1.08.31-2.16.62-3.25.9-2.77.72-5.57,1.24-8.4,1.66-2.13.32-4.28.56-6.43.69-2.24.14-4.5.15-6.74.18-1.22.01-2.44-.03-3.65-.1-1.59-.09-3.17-.27-4.75-.48-2.05-.28-4.07-.67-6.06-1.21-2.31-.62-4.55-1.44-6.69-2.53-1.59-.82-3.08-1.78-4.45-2.93-2.8-2.36-4.73-5.29-5.73-8.82-.08-.27-.13-.55-.22-.81-.02-.08-.11-.16-.19-.19-.07-.02-.19,0-.23.06-.25.34-.48.69-.72,1.04-1.68,2.45-3.66,4.63-6.01,6.46-2.85,2.22-6.03,3.76-9.57,4.52-1.05.23-2.12.38-3.2.44-6.91.36-12.75-2.04-17.69-6.8-.98-.94-1.86-1.98-2.68-3.07-.2-.26-.4-.52-.62-.76-.09-.1-.25-.14-.39-.07-.17.08-.33.17-.49.27-2.07,1.24-4.31,2.04-6.67,2.53-3.46.72-6.95.95-10.48.65-2.53-.21-5.02-.59-7.47-1.24-1.81-.48-3.58-1.1-5.26-1.94-.97-.48-1.89-1.02-2.76-1.68-1.13-.86-2.1-1.87-2.71-3.17-.06-.12-.14-.24-.19-.32-.21-.16-.38-.08-.56-.03-1.42.47-2.86.88-4.35,1.12-2.24.35-4.47.41-6.7-.11-1.95-.45-3.7-1.29-5.28-2.51-1.38-1.07-2.54-2.35-3.54-3.78-1.28-1.81-2.26-3.77-3.1-5.81-1.08-2.65-1.87-5.39-2.51-8.18-.76-3.33-1.31-6.7-1.76-10.09-.4-3.02-.68-6.05-.99-9.08-.16-1.54-.25-3.08-.38-4.62-.14-1.59-.29-3.17-.44-4.76-.1-1.03-.23-2.05-.31-3.07-.14-1.97-.55-3.89-1.02-5.8-.86-3.55-1.53-7.14-2.07-10.75-.46-3.15-.74-6.33-.8-9.51-.09-4.18.26-8.32,1.24-12.41,1.56-6.54,4.74-12.17,9.43-16.98,2.53-2.59,5.36-4.83,8.38-6.82,3.61-2.38,7.42-4.37,11.35-6.15,4.87-2.19,9.89-4.02,14.97-5.64.36-.11.71-.23,1.07-.33.48-.14.8-.41.95-.91.46-1.48.95-2.94,1.43-4.41,2.63-8,5.26-16.01,7.89-24.01.49-1.49.37-1.52,1.68-.6,2.72,1.91,5.51,3.73,8.41,5.35,5.06,2.83,10.43,4.87,16.09,6.1.96.21,1.93.39,2.89.59.36.08.71.21,1.07.32.03.01.06.07.11.14-.12.38-.23.78-.36,1.18-.82,2.54-1.65,5.08-2.47,7.61-.12.36-.24.71-.35,1.07-.14.46-.01.65.42.62.37-.03.75-.06,1.12-.11,2.04-.27,4.09-.54,6.13-.81,2.6-.34,5.2-.69,7.8-1.01,1.95-.24,3.91-.44,5.86-.67,2-.23,4-.49,6-.72,1.21-.14,2.42-.25,3.63-.38,1.26-.14,2.51-.28,3.77-.42,1.07-.12,2.14-.24,3.21-.35,1.31-.13,2.61-.24,3.92-.38,1.35-.14,2.7-.3,4.05-.44.98-.1,1.96-.2,2.94-.29,1.4-.13,2.8-.24,4.2-.38,1.45-.14,2.89-.29,4.34-.43,1.12-.11,2.24-.22,3.36-.31,1.49-.13,2.99-.24,4.48-.37,1.59-.14,3.17-.29,4.76-.43,1.21-.11,2.43-.22,3.64-.31,1.63-.13,3.27-.24,4.91-.37,1.77-.14,3.55-.3,5.32-.44,1.49-.12,2.99-.23,4.48-.35,1.12-.09,2.24-.17,3.36-.25,1.87-.13,3.74-.24,5.61-.37,1.08-.08,2.15-.17,3.22-.26.09,0,.17-.06.27-.1.23-.36.22-.79.26-1.2.1-1.17.2-2.33.29-3.5.09-1.12.19-2.24.28-3.36.13-1.63.24-3.27.38-4.9.13-1.63.29-3.27.43-4.9.13-1.49.24-2.99.36-4.48.02-.23.03-.47.05-.7.03-.3.2-.44.45-.35.4.14.79.29,1.18.44,2.8,1.07,5.62,2.08,8.5,2.91,2.75.79,5.54,1.43,8.37,1.79,3.58.46,7.18.7,10.8.48.75-.04,1.5-.07,2.25-.1.4-.01.56.17.55.61,0,.09,0,.19-.01.28-.04.65-.06,1.31-.11,1.96-.14,1.77-.29,3.55-.42,5.32-.13,1.77-.25,3.55-.38,5.33-.05.7-.1,1.4-.14,2.1-.01.2.14.37.33.38.42,0,.84.02,1.26,0,3-.14,5.99-.29,8.99-.43.19,0,.37-.02.56-.03,3.28-.12,6.56-.24,9.83-.37,1.26-.05,2.53-.1,3.79-.15.28-.01.56-.03.84-.04,4.17-.12,8.34-.24,12.51-.36,2.11-.06,4.22-.11,6.33-.17.8-.02,1.59-.05,2.39-.06,13.73-.23,27.46-.41,41.2-.29.47,0,.94-.02,1.4-.03.18,0,.35-.19.35-.36,0-.09.01-.19,0-.28-.22-2.71-.45-5.41-.67-8.12-.12-1.45-.23-2.89-.34-4.34-.01-.19,0-.37,0-.56,0-.19.16-.37.34-.37.42,0,.84-.02,1.26.02,3,.24,6,.14,8.99-.09,2.24-.17,4.47-.51,6.67-.96,4.37-.89,8.59-2.3,12.75-3.88.13-.05.26-.11.39-.16,1.89-.69,1.61-.9,1.82,1.08.18,1.68.26,3.36.39,5.04.14,1.73.29,3.45.43,5.18.14,1.68.26,3.36.39,5.04.09,1.07.2,2.14.3,3.22.02.17.19.33.38.34.14.01.28.03.42.03,1.22.06,2.43.12,3.65.18,2.95.13,5.9.24,8.85.39,2.53.13,5.05.29,7.58.43.28.02.56.04.84.06,2.15.13,4.3.23,6.46.38,1.87.12,3.74.29,5.61.43,1.73.13,3.46.25,5.19.38,1.63.13,3.27.28,4.9.42,1.35.12,2.71.25,4.06.38,1.77.17,3.54.35,5.32.52,1.31.13,2.61.24,3.92.38,1.21.13,2.42.28,3.63.42.98.11,1.95.23,2.93.35,2.97.37,5.95.73,8.92,1.13,3.57.48,7.15.96,10.71,1.52,5.09.8,10.17,1.65,15.22,2.66.32.06.65.08.98.12.16.02.33-.21.29-.38-.06-.23-.12-.45-.19-.67-.63-1.91-1.27-3.82-1.9-5.73-.1-.31-.16-.63-.25-.94Zm-220.1,161.19c2.16,0,4.27,0,6.38,0,3.99,0,7.96-.12,11.93-.56,1.96-.22,3.9-.51,5.82-.96,1.92-.44,3.79-1.04,5.58-1.87,4.24-1.97,7.2-5.13,8.86-9.51.8-2.11,1.27-4.31,1.58-6.54.29-2.05.37-4.1.35-6.17-.02-1.92-.07-3.84-.16-5.76-.09-1.87-.28-3.74-.39-5.61-.2-3.69-.37-7.39-.56-11.08-.19-3.88-.39-7.76-.58-11.65-.17-3.51-.46-7.01-.83-10.5-.29-2.7-.68-5.39-1.2-8.05-.54-2.76-1.26-5.47-2.26-8.11-1.47-3.89-3.51-7.45-6.32-10.54-2.13-2.34-4.57-4.3-7.23-5.98-2.46-1.55-5.07-2.83-7.75-3.96-2.78-1.17-5.65-1.97-8.65-2.34-3.05-.37-6.08-.31-9.1.18-3.53.57-6.91,1.67-10.15,3.2-4.01,1.89-7.67,4.32-11.03,7.2-4.52,3.88-8.34,8.34-11.37,13.47-1.5,2.55-2.75,5.22-3.6,8.06-.72,2.39-1.13,4.83-.97,7.34.04.7.07,1.4.08,2.11.04,1.92.1,3.84.08,5.76-.02,2.11-.1,4.21-.19,6.32-.09,2.15-.22,4.3-.36,6.45-.09,1.35-.21,2.71-.33,4.06-.14,1.59-.29,3.17-.42,4.76-.13,1.54-.24,3.08-.39,4.62-.3,3.22-.52,6.44-.54,9.68-.02,2.39,0,4.78.34,7.15.27,1.91.69,3.77,1.38,5.57,1.24,3.2,3.27,5.76,6.12,7.67,1.13.76,2.33,1.39,3.58,1.93,1.98.86,4.05,1.47,6.15,1.93,1.88.41,3.77.71,5.68.92,1.86.21,3.73.39,5.6.46,2.15.08,4.31.08,6.47.12.61,0,1.22,0,1.83.03,2.2.06,4.4.13,6.55.2Zm130.97-37.47c-.08-3.28-.14-6.56-.24-9.83-.09-2.67-.23-5.33-.35-8,0-.19-.03-.37-.04-.56-.14-1.87-.28-3.74-.43-5.6-.11-1.4-.22-2.8-.38-4.2-.3-2.6-.6-5.21-1-7.8-.51-3.35-1.32-6.61-2.57-9.76-2.76-6.98-7.14-12.7-13.32-17-5.83-4.05-12.34-6.24-19.38-6.85-3.23-.28-6.47-.2-9.68.28-3.44.52-6.78,1.41-9.99,2.76-6.22,2.61-11.46,6.51-15.59,11.86-3.28,4.25-5.51,9.01-6.86,14.19-.25.95-.43,1.92-.51,2.9-.19,2.24-.4,4.48-.54,6.72-.22,3.41-.43,6.82-.56,10.24-.14,3.6-.19,7.21-.25,10.82-.07,3.89.08,7.77.19,11.66.07,2.62.23,5.24.35,7.86,0,.19.03.37.04.56.15,1.96.29,3.92.44,5.88.13,1.68.26,3.36.41,5.04.05.61.09,1.21.04,1.82-.11,1.29.18,2.51.77,3.66.43.84,1,1.58,1.65,2.26.98,1.02,2.1,1.86,3.3,2.6,1.44.89,2.95,1.62,4.52,2.26,3.92,1.59,8,2.62,12.16,3.37,2.12.39,4.25.7,6.39.93,2.05.21,4.1.44,6.16.5.66.02,1.31.06,1.97.1,3.99.24,7.97.05,11.94-.21,2.1-.14,4.2-.39,6.28-.7,2.51-.37,4.98-.85,7.43-1.49,2.63-.68,5.2-1.56,7.65-2.75,1.44-.7,2.81-1.5,4.08-2.47,1.23-.95,2.33-2.03,3.2-3.33.85-1.27,1.39-2.65,1.6-4.16.12-.83.2-1.67.28-2.51.25-2.56.45-5.13.54-7.71.16-4.45.33-8.89.31-13.35Zm-183.09-1.6h.04c-.04-1.22-.09-2.43-.13-3.65-.07-2.11-.14-4.22,0-6.32.28-3.98.18-7.96-.22-11.92-.29-2.84-.73-5.66-1.35-8.45-.82-3.71-1.89-7.34-3.35-10.85-1.29-3.12-2.85-6.1-4.83-8.86-1.4-1.95-2.98-3.73-4.82-5.28-4.15-3.5-8.93-5.23-14.36-5.07-1.64.05-3.26.31-4.87.65-.79.17-1.5.48-2.17.93-4.13,2.73-7.23,6.35-9.41,10.77-1.48,3-2.45,6.17-3.15,9.43-.74,3.49-1.14,7.02-1.34,10.58-.16,2.99-.24,5.99-.25,8.99-.01,4.07.08,8.15.12,12.22.01,1.36.05,2.72-.01,4.07-.11,2.3-.08,4.59.04,6.88.14,2.81.53,5.59,1.2,8.33.67,2.79,1.66,5.46,3.08,7.96,2.66,4.69,6.48,8.07,11.47,10.11,2.84,1.16,5.81,1.8,8.87,2.02,3.85.28,7.68.07,11.48-.6,2.86-.51,5.68-1.18,8.44-2.09,1.11-.37,2.21-.76,3.32-1.14.28-.1.47-.28.59-.56.34-.82.61-1.67.84-2.53.66-2.55.96-5.15,1.07-7.78.19-4.31.09-8.61-.07-12.92-.06-1.64-.15-3.27-.22-4.91Zm241.12-6.72s-.02,0-.03,0c.02-.89.03-1.78.06-2.67.14-4.26.13-8.52-.04-12.78-.1-2.53-.28-5.05-.55-7.56-.27-2.47-.66-4.92-1.2-7.34-.66-2.93-1.57-5.78-2.81-8.52-2.46-5.4-6.1-9.84-10.9-13.33-.39-.29-.8-.44-1.29-.46-2.11-.09-4.21-.05-6.31.29-2.38.39-4.64,1.11-6.78,2.2-3.06,1.55-5.59,3.74-7.75,6.39-1.34,1.64-2.48,3.41-3.48,5.26-1.4,2.6-2.51,5.33-3.43,8.14-1.65,5.05-2.64,10.24-3.32,15.49-.38,2.88-.64,5.77-.8,8.67-.16,3.04-.29,6.08-.32,9.12-.03,3.61.08,7.21.24,10.81.1,2.29.24,4.58.36,6.87.01.19.04.37.05.56.06.84.11,1.68.18,2.52.09,1.31.17,2.62.29,3.92.09.93.29,1.85.55,2.75.68,2.33,2.09,4.05,4.28,5.12.89.43,1.81.76,2.76,1.03,2.08.59,4.22.88,6.37,1.06,2.33.19,4.67.36,7.02.35,1.64-.01,3.28.01,4.92.02,2.64.01,5.23-.32,7.8-.89,1.65-.37,3.24-.92,4.74-1.7,2.3-1.2,4.12-2.9,5.46-5.12.68-1.13,1.22-2.32,1.64-3.56,1.04-3.08,1.55-6.26,1.72-9.5.03-.65.04-1.31.06-1.97.17-5.05.34-10.11.51-15.16Zm-299.51-3.62c.08-5.76.1-11.52-.31-17.27-.18-2.57-.45-5.13-.83-7.68-.41-2.78-.98-5.53-1.75-8.23-.95-3.3-2.2-6.47-3.91-9.45-3.29-5.78-7.93-10.15-13.86-13.16-.69-.35-1.38-.52-2.15-.49-2.53.11-4.9.76-7.05,2.11-1.44.9-2.69,2.03-3.78,3.33-1.3,1.55-2.36,3.26-3.24,5.08-1.07,2.2-1.88,4.49-2.53,6.84-1.3,4.72-1.94,9.54-2.23,14.41-.11,1.82-.16,3.65-.16,5.48,0,3.09.05,6.18.34,9.26.15,1.58.24,3.18.43,4.76.34,2.84.76,5.66,1.29,8.47.92,4.88,2.13,9.69,3.74,14.39,1.14,3.33,2.48,6.57,4.15,9.67,1,1.86,2.11,3.65,3.41,5.31,1.01,1.3,2.12,2.5,3.39,3.55.91.75,1.88,1.4,2.94,1.9,1.46.69,2.99,1.05,4.62,1.01,1.68-.04,3.23-.52,4.71-1.25,1.27-.63,2.41-1.44,3.49-2.35,1.14-.97,2.19-2.04,3.17-3.18,2.54-2.96,4.62-6.25,6.51-9.65.19-.34.24-.69.2-1.08-.12-1.26-.26-2.52-.32-3.78-.16-3.51-.29-7.02-.27-10.53.02-2.48,0-4.96,0-7.45Zm347.26-10.07c-.01-3.54,0-6.15-.21-8.77-.21-2.57-.47-5.12-.86-7.67-.48-3.15-1.15-6.26-2.04-9.32-.99-3.38-2.24-6.65-3.92-9.75-1.03-1.9-2.2-3.7-3.6-5.35-1.03-1.22-2.17-2.33-3.46-3.27-1.14-.83-2.37-1.51-3.72-1.95-2.46-.79-4.88-.71-7.27.32-1.08.47-2.07,1.09-2.98,1.83-1.21.98-2.25,2.11-3.19,3.35-1.19,1.57-2.18,3.27-3.04,5.04-1.29,2.66-2.28,5.43-3.1,8.27-.97,3.38-1.65,6.82-2.2,10.29-.09.55-.11,1.12-.1,1.68.02,1.12.07,2.25.11,3.37.14,3.51.3,7.02.41,10.53.12,3.98.21,7.96.27,11.94.1,6.65.13,13.3-.2,19.94-.04.75-.07,1.5-.15,2.24-.05.47-.02.92.08,1.39.48,2.11,1.25,4.12,2.34,5.99.93,1.59,2.08,3,3.49,4.19,3.56,2.99,7.68,3.96,12.22,3.21,2.73-.45,5.18-1.58,7.42-3.18,2.55-1.82,4.6-4.11,6.27-6.75,1.69-2.67,2.9-5.55,3.75-8.59.68-2.44,1.2-4.91,1.66-7.39.81-4.38,1.34-8.79,1.64-13.23.21-3.08.4-6.17.36-8.35Zm-395.22-26.51c-.04-.1-.05-.15-.08-.18-.16-.17-.32-.34-.5-.49-2.41-2.04-5-3.78-7.81-5.21-1.5-.77-3.06-1.41-4.68-1.9-1.81-.55-3.64-.84-5.54-.74-.71.04-1.4.17-2.07.37-2.53.76-4.66,3.31-4.5,5.8.02.33-.02.66-.04.98-.13,2.15-.26,4.3-.38,6.45-.16,2.9-.32,5.8-.45,8.7-.08,1.78-.1,3.56-.12,5.34-.07,5.58.04,11.14.61,16.7.29,2.84.68,5.67,1.24,8.47.54,2.71,1.24,5.38,2.18,7.98,1.02,2.83,2.28,5.54,3.97,8.04,1.35,1.99,2.9,3.81,4.82,5.26,2.43,1.85,1.81,1.6,4.71,1.74,2.91.14,5.8-.18,8.65-.83,1.37-.31,2.72-.72,3.99-1.32.51-.24,1-.51,1.49-.78.25-.14.33-.35.24-.59-.05-.13-.1-.26-.15-.39-.66-1.45-1.13-2.97-1.55-4.51-1.3-4.8-2.12-9.69-2.81-14.61-.26-1.81-.47-3.62-.69-5.43-.16-1.3-.3-2.6-.43-3.91-.14-1.49-.27-2.98-.38-4.48-.18-2.43-.33-4.86-.49-7.29-.04-.61-.05-1.22-.08-1.82-.25-4.96-.29-9.92.03-14.88.12-1.87.33-3.73.65-5.58.06-.32.12-.64.17-.91Zm427.33,18.05s.04,0,.07,0c.11-2.57.23-5.15.33-7.72.09-2.58-.02-5.15-.39-7.7-.46-3.24-1.54-6.26-3.17-9.09-.86-1.5-.68-1.28-2.36-1.67-.09-.02-.19-.03-.28-.04-1.86-.22-3.73-.35-5.61-.24-.79.05-1.59.13-2.38.19-2.11.18-4.17.59-6.18,1.25-1.38.45-2.71,1.05-3.92,1.86-.98.66-1.85,1.44-2.54,2.4-.17.24-.25.49-.2.79.43,2.49.82,4.99,1.12,7.5.24,2,.49,4,.68,6,.17,1.68.26,3.36.39,5.04.27,3.41.37,6.83.42,10.24.04,2.48-.05,4.96-.15,7.44-.14,3.42-.42,6.82-.85,10.21-.41,3.25-.99,6.48-1.76,9.66-.84,3.46-1.94,6.84-3.44,10.08-.65,1.4-.72,1.26.76,1.8.66.24,1.32.49,1.99.7,2.7.82,5.45,1.36,8.3,1.21,2.73-.15,5.24-.93,7.49-2.51,1.35-.95,2.5-2.12,3.5-3.43,1.12-1.46,2-3.05,2.76-4.72.81-1.79,1.46-3.65,1.99-5.54,1.33-4.7,2.04-9.51,2.53-14.36.18-1.72.34-3.45.45-5.18.13-2.1.3-4.2.32-6.31.01-2.62.09-5.24.13-7.87Zm-461.11,42.29c.99.05,1.97-.09,2.93-.27.5-.09.99-.29,1.47-.45.17-.06.33-.18.49-.28.16-.1.26-.33.22-.48-.1-.36-.21-.72-.32-1.08-1.23-3.93-2.22-7.93-3.04-11.97-.49-2.43-.92-4.88-1.28-7.33-.26-1.76-.46-3.53-.66-5.29-.13-1.16-.26-2.33-.34-3.49-.17-2.29-.34-4.57-.46-6.86-.09-1.64-.1-3.28-.14-4.91-.07-3.47.07-6.93.2-10.39,0-.23.03-.47.05-.7.14-1.73.27-3.45.42-5.18.07-.79.17-1.58.25-2.37.05-.51.09-1.03.13-1.54.01-.16-.14-.38-.3-.43-.13-.04-.27-.1-.4-.12-.79-.07-1.59-.17-2.38-.17-2.74,0-5,1.06-6.77,3.16-.58.68-1.06,1.43-1.48,2.21-.59,1.12-1.05,2.3-1.41,3.51-.84,2.8-1.22,5.67-1.37,8.58-.25,4.88,0,9.74.61,14.58.34,2.74.77,5.47,1.29,8.18.83,4.32,1.86,8.6,3.17,12.8.7,2.23,1.47,4.45,2.48,6.56.38.8.83,1.57,1.26,2.35.26.48.67.75,1.21.88,1.37.33,2.77.46,4.17.51Zm481.94-42.08c.02-3.98-.08-7.3-.63-10.59-.26-1.57-.61-3.12-1.12-4.63-.38-1.11-.85-2.18-1.49-3.17-.54-.83-1.17-1.58-1.98-2.17-.97-.71-2.05-1.11-3.26-1.16-1.04-.04-2.06.07-3.05.4-.53.18-1.05.4-1.57.61-.24.1-.36.32-.34.55.01.09.03.18.04.28.2,1.72.46,3.44.59,5.16.18,2.38.37,4.76.35,7.15-.01,2.25.03,4.5-.03,6.74-.06,2.43-.17,4.87-.34,7.29-.19,2.61-.41,5.23-.7,7.83-.28,2.56-.6,5.11-.97,7.66-.52,3.52-1.14,7.02-1.9,10.49-.69,3.15-1.49,6.28-2.54,9.34-.06.18-.13.35-.19.53-.09.26,0,.5.23.58.53.18,1.06.38,1.6.51,1.47.34,2.95.52,4.45.14,2.24-.56,4.02-1.72,5.16-3.78.57-1.03,1.02-2.11,1.43-3.2,1.02-2.72,1.8-5.51,2.49-8.33,1.61-6.6,2.69-13.3,3.32-20.06.28-2.94.45-5.88.42-8.18Z" style="fill:#abe7e3;"></path><path d="m474.22,21.4c1.28-.05,2.88-.05,4.46-.19,2.76-.23,5.47-.74,8.14-1.48,2.8-.78,5.52-1.77,8.23-2.83.39-.15.79-.28,1.19-.39.07-.02.2.04.23.11.1.21.2.42.25.65.4,1.64.78,3.28,1.17,4.91.3,1.27.61,2.55.93,3.82.07.29.27.49.57.55.18.04.37.06.55.09.6.1,1.2.18,1.8.3.46.09.91.22,1.32.46.5.29.69.78.49,1.31-.25.68-.69,1.23-1.26,1.66-.56.42-1.15.81-1.76,1.15-1.3.74-2.68,1.33-4.08,1.86-3.16,1.2-6.41,2.07-9.7,2.79-2.52.55-5.05.99-7.61,1.33-2.51.33-5.04.5-7.57.51-1.54,0-3.1-.04-4.61-.42-.5-.12-.98-.31-1.46-.49-.17-.06-.33-.18-.48-.28-.69-.48-.84-1.24-.41-1.97.32-.53.76-.96,1.25-1.32.49-.36,1.01-.68,1.52-1,.26-.16.4-.38.42-.68.06-.65.13-1.3.18-1.96.13-1.91.25-3.83.38-5.75.06-.84.15-1.68.23-2.52.02-.19.18-.34.37-.35.33,0,.66,0,.98,0,1.31.04,2.62.07,4.25.12Z" style="fill:#abe7e3;"></path><path d="m380.14,37.97c-1.78-.04-3.97-.18-6.16-.47-2.64-.34-5.27-.79-7.88-1.37-2.69-.6-5.36-1.29-7.97-2.2-1.64-.57-3.26-1.18-4.79-1.98-.75-.39-1.47-.82-2.18-1.27-.64-.41-1.16-.95-1.52-1.62-.11-.2-.2-.43-.23-.65-.06-.34.06-.64.34-.87.26-.21.56-.33.87-.43.81-.26,1.65-.33,2.47-.49.23-.04.46-.07.69-.13.19-.05.33-.19.38-.37.2-.77.39-1.54.58-2.31.49-2.05.98-4.09,1.47-6.14.08-.32.17-.63.26-.95.04-.16.29-.27.46-.22.35.12.7.25,1.05.38,1.53.57,3.06,1.16,4.6,1.7,2.38.84,4.81,1.53,7.3,2,1.93.36,3.88.63,5.85.71,2.06.08,4.12.1,6.18.01.65-.03,1.31-.05,1.97-.05.37,0,.58.09.62.58.1,1.26.19,2.52.28,3.78.13,1.87.25,3.73.37,5.6.02.23,0,.47.06.7.04.17.14.36.27.47.29.23.63.41.94.61.56.35,1.08.75,1.53,1.23.26.27.48.57.62.93.2.51.1,1.03-.28,1.42-.3.31-.67.51-1.06.67-.79.31-1.61.5-2.45.58-1.4.13-2.8.24-4.63.15Z" style="fill:#abe7e3;"></path><path d="m231.63,37.78c.7.04,1.08.06,1.45.09.31.02.55-.08.7-.36.17-.33.35-.66.52-.99,1.05-2.04,2.1-4.08,3.15-6.12.15-.29.3-.58.45-.87.32-.6.43-.64.94-.29.31.21.61.44.92.65,1.4.94,2.79,1.9,4.2,2.81,2.01,1.3,4.09,2.46,6.27,3.45,3.03,1.39,6.2,2.39,9.45,3.12,1.32.3,2.66.56,3.99.83.44.09.51.31.45.71-.21,1.24-.44,2.49-.66,3.73-.31,1.8-.62,3.6-.93,5.4-.05.32-.09.65-.1.98,0,.13.04.29.12.39.21.25.46.47.67.72.39.46.78.93,1.14,1.42.25.34.4.73.5,1.15.14.63-.13,1.22-.72,1.52-.38.2-.78.3-1.21.33-1.13.08-2.25.03-3.36-.16-2.03-.35-4.02-.89-5.98-1.54-6.7-2.22-13.04-5.18-18.94-9.06-1.29-.85-2.53-1.77-3.68-2.82-.52-.47-1-.98-1.48-1.5-.35-.38-.63-.81-.82-1.3-.07-.17-.13-.35-.17-.53-.12-.52.12-1.07.58-1.32.33-.19.67-.33,1.06-.35.61-.03,1.22-.06,1.49-.07Z" style="fill:#abe7e3;"></path><path d="m614.08,28.97c.37.19.45.52.6.8,1.2,2.33,2.4,4.66,3.61,6.98.19.37.32.78.67,1.07.46.11.92-.01,1.39,0,.65,0,1.31.02,1.96.04.43.02.82.18,1.17.43.29.2.44.48.46.83.03.38-.05.74-.22,1.09-.27.55-.62,1.05-1.05,1.49-.56.57-1.13,1.12-1.73,1.64-1.49,1.29-3.11,2.41-4.8,3.42-6.11,3.7-12.57,6.65-19.44,8.65-1.31.38-2.63.69-3.97.91-1.07.18-2.14.22-3.22.13-.43-.03-.83-.14-1.21-.34-.55-.28-.81-.77-.72-1.39.04-.27.11-.56.25-.8.25-.45.53-.88.85-1.28.32-.4.69-.76,1.06-1.12.25-.25.37-.52.3-.88-.22-1.2-.43-2.39-.63-3.59-.35-2.03-.68-4.06-1.02-6.09-.03-.18-.04-.37-.02-.56,0-.08.09-.19.16-.21.55-.13,1.1-.24,1.65-.35,2.85-.56,5.66-1.25,8.41-2.21,2.84-.99,5.53-2.29,8.12-3.82,2.22-1.31,4.35-2.76,6.46-4.24.3-.21.62-.4.91-.59Z" style="fill:#abe7e3;"></path><path d="m228.59,51.3c.27.16.52.29.75.45,1.43.97,2.85,1.97,4.3,2.91,3.22,2.09,6.57,3.96,10.11,5.47,3.76,1.6,7.65,2.77,11.64,3.6.6.12,1.2.22,1.79.34.36.08.74.12,1.09.37-.06.23-.1.45-.17.67-.76,2.31-1.53,4.61-2.3,6.92-.06.18-.11.36-.17.53-.39,1.11-.33,1.03.42,1.83.35.38.67.78.98,1.19.28.38.47.81.6,1.26.16.55-.07,1.16-.57,1.46-.24.14-.5.25-.77.32-.82.22-1.66.22-2.51.13-1.78-.18-3.51-.55-5.22-1.05-7.36-2.17-14.27-5.33-20.73-9.46-1.3-.83-2.55-1.75-3.73-2.74-.79-.65-1.52-1.38-2.13-2.23-.28-.38-.5-.79-.65-1.24-.25-.75.06-1.4.81-1.69.44-.17.89-.29,1.37-.28.47,0,.94,0,1.4,0,.18,0,.37-.03.53-.04.32-.3.36-.69.48-1.03.69-2.04,1.35-4.08,2.02-6.12.12-.36.22-.71.36-1.06.06-.17.18-.32.3-.52Z" style="fill:#abe7e3;"></path><path d="m594.22,64.4c.41-.26.88-.3,1.33-.39,2.86-.52,5.67-1.22,8.43-2.11,4.16-1.35,8.09-3.18,11.85-5.4,2.34-1.38,4.6-2.88,6.83-4.43.31-.21.61-.43.93-.64.15-.1.42-.03.48.13.13.35.26.7.38,1.05.66,2,1.32,3.99,1.98,5.99.1.31.2.62.31.93.15.43.29.53.71.53.51,0,1.03,0,1.54,0,.48,0,.93.12,1.37.29.13.05.25.12.37.2.32.23.53.54.49.95-.02.27-.08.56-.17.81-.18.49-.47.92-.81,1.3-.71.8-1.47,1.56-2.31,2.24-2.68,2.14-5.59,3.92-8.62,5.51-4.27,2.25-8.67,4.2-13.27,5.68-1.74.56-3.48,1.08-5.29,1.39-.87.15-1.76.26-2.64.35-.66.07-1.31-.02-1.95-.18-.22-.06-.44-.15-.65-.25-.52-.26-.72-.71-.68-1.27.03-.38.15-.73.33-1.06.3-.54.67-1.01,1.08-1.46.25-.28.52-.54.76-.83.08-.09.11-.27.08-.39-.09-.36-.22-.71-.34-1.07-.74-2.22-1.47-4.44-2.21-6.65-.13-.39-.29-.78-.31-1.22Z" style="fill:#abe7e3;"></path><path d="m501.48,49.8c.39.29.82.3,1.23.38.5.1,1.01.2,1.51.33.22.06.44.17.64.29.51.29.66.79.44,1.32-.28.67-.72,1.21-1.28,1.65-.85.67-1.77,1.22-2.75,1.68-3.62,1.71-7.42,2.85-11.3,3.77-2.87.68-5.77,1.22-8.7,1.6-1.34.18-2.69.36-4.05.4-1.45.05-2.9.23-4.35.18-1.45-.05-2.9-.11-4.32-.48-.45-.12-.9-.27-1.32-.47-.29-.14-.56-.35-.78-.58-.36-.37-.42-.83-.24-1.31.16-.45.44-.83.8-1.14.46-.39.96-.75,1.44-1.11.26-.19.53-.38.8-.57.03-1.06-.08-2.08-.16-3.11-.15-1.82-.3-3.64-.44-5.46-.02-.28,0-.56,0-.84,0-.1.17-.29.26-.29.42,0,.84,0,1.26.02,1.17.04,2.34.13,3.51.14,6.37.04,12.6-.93,18.67-2.86,2.37-.75,4.69-1.6,7.01-2.49.35-.13.7-.25,1.06-.36.06-.02.17.06.21.12.05.07.06.17.07.27.07.75.15,1.49.21,2.24.13,1.73.26,3.46.38,5.18.04.51.04,1.03.19,1.49Z" style="fill:#abe7e3;"></path><path d="m351.51,49.86c.04-.12.1-.2.11-.29.1-1.07.2-2.14.28-3.21.13-1.68.25-3.36.38-5.04.02-.23.08-.46.15-.68.02-.06.16-.15.21-.14.31.08.63.19.93.3,2.05.79,4.11,1.55,6.2,2.24,2.98.98,6.01,1.78,9.1,2.31,1.98.34,3.98.58,5.99.7,2.72.17,5.43.21,8.14,0,.33-.02.65-.03.98-.03.09,0,.19.01.27.05.07.04.17.12.18.19.03.18.03.37.02.56-.16,2.05-.33,4.1-.5,6.15-.03.42-.09.84-.12,1.26-.04.46-.07.93-.1,1.31.16.37.42.48.65.64.53.38,1.06.76,1.57,1.17.33.26.59.6.79.98.33.64.2,1.34-.37,1.76-.3.22-.63.4-.97.54-.69.29-1.43.45-2.17.54-2,.24-4.01.31-6.03.13-1.4-.12-2.8-.13-4.2-.35-1.57-.25-3.16-.4-4.72-.68-3.13-.56-6.23-1.24-9.29-2.14-2.56-.75-5.07-1.66-7.48-2.81-.92-.44-1.81-.98-2.6-1.65-.44-.36-.78-.81-1.06-1.3-.14-.25-.2-.52-.18-.81.01-.24.1-.47.3-.61.23-.16.47-.33.73-.41.49-.15,1-.25,1.5-.35.45-.09.92-.12,1.32-.35Z" style="fill:#abe7e3;"></path><path d="m494.36,3.52c.63.11,1.22.22,1.82.33.5.1,1.01.19,1.51.33.26.08.51.23.72.42.21.19.3.47.21.77-.21.65-.62,1.16-1.15,1.56-.48.37-1,.7-1.53,1-1.1.62-2.27,1.11-3.45,1.56-2.46.93-4.98,1.63-7.54,2.22-2.47.57-4.96,1.01-7.46,1.32-2.23.28-4.47.46-6.73.2-1.21-.14-2.44-.1-3.63-.38-.46-.1-.91-.21-1.36-.35-.22-.07-.41-.22-.6-.35-.2-.14-.29-.55-.17-.77.12-.2.25-.4.41-.56.46-.47,1.02-.82,1.58-1.17.6-.37,1.2-.73,1.73-1.05.23-.32.19-.6.22-.88.12-1.31.23-2.61.34-3.92.03-.36.21-.61.55-.73,3.43-1.27,6.92-2.35,10.56-2.8,2.23-.27,4.47-.38,6.73-.15,2.01.21,3.98.56,5.91,1.16.09.03.18.05.27.08.34.11.56.31.63.68.08.46.12.93.43,1.48Z" style="fill:#abe7e3;"></path><path d="m381.37,13.29c-1.36.1-2.71.04-4.07-.09-4.25-.4-8.43-1.22-12.54-2.35-2.17-.59-4.29-1.32-6.34-2.27-.85-.39-1.68-.83-2.45-1.36-.55-.38-1.02-.83-1.34-1.42-.11-.2-.16-.44-.19-.66-.03-.24.08-.48.28-.61.23-.16.48-.3.74-.38.45-.13.91-.21,1.37-.3.51-.1,1.01-.19,1.52-.27.39-.06.55-.3.61-.66.05-.32.14-.64.2-.96.06-.3.26-.49.55-.58,1.74-.56,3.52-.95,5.34-1.17,2.43-.3,4.86-.27,7.29.02,2.33.28,4.62.78,6.85,1.48,1.38.43,2.75.93,4.12,1.41.23.08.39.26.41.52.09.93.19,1.86.28,2.79.05.51.1,1.02.14,1.54.03.41.22.69.58.9.65.37,1.3.75,1.92,1.17.39.26.74.57,1.09.88.14.12.23.3.33.45.14.23.08.59-.13.77-.25.22-.54.36-.86.46-.95.29-1.92.43-2.9.52-.93.09-1.87.13-2.8.19Z" style="fill:#abe7e3;"></path><path d="m608.07,15.2c.21.41.44.87.67,1.33.12.24.33.33.57.33.37,0,.75-.03,1.12-.05.61-.02,1.22-.05,1.82-.05.23,0,.47.03.69.08.4.08.72.56.66.95-.08.57-.29,1.09-.63,1.54-.25.34-.52.67-.82.95-.61.58-1.24,1.14-1.9,1.67-1.35,1.09-2.81,2.03-4.3,2.91-4.05,2.37-8.29,4.32-12.71,5.89-1.55.55-3.15.89-4.76,1.18-.97.17-1.94.33-2.91.44-.65.07-1.31.07-1.96.08-.33,0-.64-.12-.93-.28-.22-.12-.37-.49-.27-.73.13-.3.26-.61.45-.86.37-.48.78-.93,1.2-1.37.42-.44.88-.84,1.27-1.22.12-.66,0-1.21-.09-1.76-.13-.83-.28-1.66-.4-2.49-.05-.37-.06-.74-.08-1.06.09-.13.13-.23.2-.27,2-1.38,4.07-2.67,6.24-3.78,2.85-1.46,5.83-2.54,8.97-3.15,2.5-.48,5.02-.58,7.55-.39.09,0,.18.05.33.1Z" style="fill:#abe7e3;"></path><path d="m244.42,15.14c.34-.03.57-.06.8-.08,4.67-.29,9.13.57,13.43,2.37,1.86.78,3.65,1.7,5.37,2.75,1.16.71,2.29,1.46,3.42,2.2.22.14.29.35.26.61-.19,1.3-.39,2.59-.58,3.89-.05.32-.06.64-.09.98.32.32.62.61.91.91.42.44.86.86,1.26,1.32.27.32.52.67.73,1.03.35.59.11,1.07-.58,1.26-.65.17-1.3.13-1.95.07-.75-.07-1.49-.16-2.23-.29-1.02-.17-2.03-.37-3.03-.57-1.01-.2-2-.5-2.97-.85-4.38-1.56-8.58-3.49-12.59-5.83-1.7-1-3.35-2.07-4.86-3.33-.61-.51-1.18-1.07-1.75-1.63-.4-.4-.72-.86-.91-1.4-.09-.26-.16-.54-.19-.81-.05-.38.22-.76.59-.86.22-.06.46-.11.69-.11.7,0,1.4.04,2.11.06.33,0,.65.03.98.02.2,0,.36-.09.46-.27.24-.45.47-.91.74-1.44Z" style="fill:#abe7e3;"></path></g><g><path d="m629.31,295.02c-15.33,14.24-26.61,6.73-24.79-2.3-2.6,2.55-20.89,12.28-31.69,16.4-8.91,3.4-18.74,6.62-27.55,8.05-7.6,1.23-10.76-1.37-10.78-9.09,0-3.11,0-6.21,0-10.43,0-.06-.08-.1-.12-.06-3.12,2.76-5.28,5.03-7.81,6.76-1.97,1.35-4.23,3.24-6.42,2.65-2.68-.72-2.99-4.08-3.3-6.81-.13-1.21-.34-5.3-.29-6.92-8.48,7.84-28.57,18.21-39.68,19.76-13.39,1.86-19.08-4.53-16.11-16.52-1,.35-20.99,11.86-40.51,12.12-1.11.03-1.21.14-2.79.09-1.79,5.1-6.07,9.12-13.2,8.99-2.01-.04-5.98-1.29-6.74-4.44-.9-3.73,2.45-5.66,4.99-6.6,3.44-1.27,9.14-1.66,9.79-1.79.13-.78.14-1.88.16-2.94.04-1.79.12-3.59.1-5.38-.09-6.86,4.19-13.21,10.75-15.16,1.3-.38,3.98.11,4.65,1.42.67,1.31-.69,2.9-1.52,3.28-8.39,3.8-9.04,11.12-8.87,18.89,9.01-.03,18.47-1.61,26.74-4.62,7.3-2.66,14.29-6.18,21.3-9.58,4.31-2.09,8.58-3.19,13.29-1.71,3.22,1.01,5.33,2.93,5.65,6.43.32,3.51-1.72,5.65-4.68,6.63-4.32,1.43-10.28,2.73-13.53,3.04,13.1,6.82,38.89-5.23,49.88-15.85,3.16-3.05,5.65-2.29,6.71,2.08.54,2.23.74,4.54,1.15,7.15,2.35-1.31,4.54-2.76,6.91-3.81,6.47-2.88,10.13-.55,10.52,6.54.1,1.79.11,3.59.13,5.38.05,4.5,1.24,4.88,4.88,4.08,14.44-3.16,35.18-10.41,48.42-16.89,5.41-2.65,10.01-5.86,14.25-10.47,3.37-3.66,9.46-7.55,16.63-8.56,4.54-.64,6.13,1.06,5.1,5.56,3.93.23,4.26,3.37,4.39,6.09.37,7.28-.25,24.42-.25,26.12,1.31-.7,3.17-2.03,4.22-2.63,25.22-14.61,44.11-22.52,73.06-25.62,27.14-2.91,54.02.7,80.81,5.15,15.28,2.54,30.53,5.33,45.86,7.44,4.22.58,6.92,1.15,10.73-.75.52-.26.65-1.17,2.59-.26,1.94.91,3.24,3.24.39,6.09-1.5,1.5-4.15,2.33-8.64,2-9.52-1.13-19-2.73-28.41-4.55-28.61-5.52-57.28-13.22-86.58-12.36-33.64.98-67.81,12.32-94.19,30.77-.45,2.81-2.05,40.17-6.5,55.06-3.28,10.99-6.43,19.51-14.07,26.91-6.37,6.17-13.98,9.15-22.83,7.41-12.24-2.41-18.63-13.85-15.79-27.71,2.42-11.8,9-21.33,16.53-30.36,15.37-18.4,35.46-31.49,36.1-32.22.13-1.21.13-2.22.14-3.5.07-5.88.49-11.75.81-18.44Zm-1.51,27.89c-1.89,1.52-17.45,11.5-36.87,35.86-5.16,6.95-8.94,14.34-10.65,22.96-1.63,8.26.74,17.77,7.18,21.51,6.15,3.57,15.05,2.29,21.4-3.24,5.51-4.8,8.91-12.91,11.15-19.64,5.89-17.7,6.62-38.73,7.78-57.45Zm1.93-41.51c-6.68-1.3-13.81,2.3-17.42,8.45-.95,1.62-2.39,5.92.5,6.93,5.7,1.99,16.07-8.12,16.92-15.37Zm-151.35,13.6c-5.03-3.11-11.12-.78-12.64,5.34,4.37-.29,8.39-.94,12.16-2.45,1.11-.44,1.49-2.26.48-2.89Zm-66.59,13.42c-5.84-.2-12.45,3.56-8.83,5.22,3.55,1.63,7.52-1.14,8.83-5.22Z" style="fill:#3c85a2;"></path><path d="m224.9,290.04c13.33-.6,34.72,1.86,40.13,1.94,3.27-3.97,11.27-14.12,12.26-25.25.99-11.12-5.35-20.97-16.09-25.25-9.75-3.89-19.78-3.45-29.94-2.16-24.52,3.12-62.54,8.18-87.09,11.07-71.99,8.46-100.89,8.07-123.7,5.09-17.44-2.28-20.48-8.42-20.48-11.28,0-3.76,3.24-4.8,3.24-4.28,0,2.21,4.87,5.76,12.34,7.97,6.32,1.88,43.65,9,126.22-1.23,26.97-3.35,65.45-10.11,91.67-12.7,9.62-.95,19.18-.93,28.43,2.56,16.18,6.09,24.54,18.8,20.78,35.16-2.2,9.59-9.07,18.41-10.92,21.26,5.99.52,10.66.65,19.61-.03,4.27-.32,6.21,1.55,6.06,5.79-.08,2.23-.95,4.44-1.58,6.63-.41,1.43-2.24,3.76-1.68,4.5s4.76,1.99,12.57-2.29c10.28-5.65,17.12-12.14,20.3-15.23,3.21-3.12,3.78-2.89,4.64-2.34,1.43.91-.56,3.53-1.78,5.03-7.17,8.84-18.96,17.14-25.49,19.46-4.48,1.59-9.33,1.45-13.72-1.2-3.57-2.16-4.89-4.8-2.86-8.46,1.3-2.35,4.06-8.22,4.09-9.48-2.75-.04-8.46,1.26-22.36.55-14.61,15.23-29.39,21.49-49.74,21.32-15.68-.13-22.41-5.81-21.13-13.22,1.81-10.5,15.29-12.83,20.02-13.51,2.54-20.19,4.67-27.83,9.95-38.6.56-1.15,3.33-6.19,6.27-4.51,2,1.15,1.31,2.87.06,5.16-5.57,10.24-8.3,22.03-10.09,37.54Zm37.89,4.97c-9.65-.78-28.7-2.59-38.18-1.81-.43,3-1.15,8.3-1.61,11.35-.25,1.66-1.88,4.38-4.27,4.16-2.4-.22-1.75-2.42-1.57-4.69.19-2.44.88-7.24,1.17-10.59-11.46,2.1-14.18,6.89-14.36,11.51-.29,7.31,11.49,7.47,15,7.51,15.64.18,30.16-3.71,43.82-17.44Z" style="fill:#3c85a2;"></path><path d="m394.25,234.22c12.87-.77,27-1.16,36.39-1.12,8.11.04,11.56,1.26,14.28,3.33,3.03,2.32,4.61,4.63,3.28,8.1-.33.87-1.53,1.8-2.45,1.93-.69.1-2.07-.71-2.26-1.61-.46-5.45-3.63-5.58-9.17-6.43-5.54-.84-25.89-.71-40.91.65-.67,5.33-9.74,61.76-14.28,73.73-1.11,2.91-2.33,5.4-4.43,4.8-1.68-.48-1.21-2.36-1.03-3.4,1.84-5.73,4.04-14.54,5.53-23.68,1.11-4.47-8.49-30.27-19.2-38.79-3.19-2.54-5.1-3.01-8.09-4.13-1.38-.52-3.43-1.21-3.72-2.44-.41-1.75,2.09-3.05,3.44-3.45,12.22-3.62,35.68-6.21,37.67-6.96.73-3.26,5.27-3,4.97-.54Zm-13.45,51.19c2.38-13.53,5.27-31.47,7.81-45.93-11.31,1.23-19.86,2.53-32.4,4.61,14.53,8.95,20.31,26.04,24.58,41.32Z" style="fill:#3c85a2;"></path><path d="m337.32,315.41c-2.01,1.37-5.9-.31-6.42-1.48-.47-1.06,1.11-2.69,2.08-3.45,2.06-1.61,2.78-4.41,5.81-2.51,1.09.68,2.61,2.45,2.08,3.55-.92,1.42-2.01,2.83-3.56,3.89Z" style="fill:#3c85a2;"></path></g></g></g></svg> 