<?xml version="1.0" encoding="UTF-8"?>
<svg version="1.1" xmlns="http://www.w3.org/2000/svg" width="953" height="504">
<path d="M0 0 C5.72838043 5.55559865 6.31771555 12.04425155 6.625 19.75 C6.45231412 27.26558983 4.67909519 32.86698043 1.125 39.4375 C0.66351562 40.31535156 0.20203125 41.19320312 -0.2734375 42.09765625 C-10.26867014 59.32294295 -27.38476943 73.64665788 -43.875 84.4375 C-42.39 83.9425 -42.39 83.9425 -40.875 83.4375 C-34.30410608 82.64691907 -29.4044599 83.80423379 -23.875 87.4375 C-21.45683552 89.85566448 -21.52711937 90.60576826 -21.4375 93.9375 C-21.75889568 105.18634863 -29.64302044 113.30167837 -36.40234375 121.60888672 C-38.84089287 124.63685968 -41.20067803 127.72455569 -43.5625 130.8125 C-44.39971659 131.90366348 -45.23695389 132.99481106 -46.07421875 134.0859375 C-46.96560547 135.24996094 -46.96560547 135.24996094 -47.875 136.4375 C-47.28332031 136.16035156 -46.69164062 135.88320312 -46.08203125 135.59765625 C-45.29183594 135.23542969 -44.50164063 134.87320313 -43.6875 134.5 C-42.91019531 134.14035156 -42.13289062 133.78070313 -41.33203125 133.41015625 C-34.93761538 130.87882151 -27.15005308 130.13083926 -20.5234375 132.15625 C-14.61044841 134.90235729 -11.45092535 138.5368636 -9.125 144.625 C-6.02742205 155.03012373 -8.03614804 165.71879104 -12.83496094 175.36767578 C-16.88550288 182.78994984 -21.62142745 189.77283187 -26.7578125 196.484375 C-27.31082031 197.45117188 -27.31082031 197.45117188 -27.875 198.4375 C-25.77922383 204.7248285 -16.19909661 208.727508 -10.4375 211.69140625 C0.48231321 215.97246938 12.60879966 213.71053837 23.125 209.4375 C34.87296205 204.11369901 44.93057436 196.02368745 54.02905273 186.97973633 C56.95336019 184.15912412 59.04301135 182.79309974 63.125 182.4375 C59.85478437 198.81972305 47.77009433 212.22610579 34.125 221.4375 C18.62839971 230.60294767 2.95508293 234.02172361 -14.64453125 229.54296875 C-23.23434825 226.60352714 -30.5354254 221.20660444 -37.5234375 215.52734375 C-39.87254597 214.17638214 -39.87254597 214.17638214 -42.65234375 214.85546875 C-46.95083782 216.96563857 -50.36938538 219.79240638 -54.0625 222.8125 C-63.02254695 229.86654254 -70.70346251 234.28336534 -82.4375 233.75 C-88.48747972 232.97436157 -91.90604215 229.88809212 -95.63671875 225.34765625 C-96.875 223.4375 -96.875 223.4375 -97.9375 219.625 C-98.4015625 218.0471875 -98.4015625 218.0471875 -98.875 216.4375 C-101.33204762 215.20459799 -101.33204762 215.20459799 -103.875 214.4375 C-106.89594905 209.80190576 -106.40590725 204.75337905 -105.875 199.4375 C-102.16121459 182.02031653 -89.52107697 166.7224966 -79.6875 152.3125 C-77.19126408 148.64509045 -74.69814271 144.9755796 -72.20703125 141.3046875 C-71.2968071 139.96431427 -71.2968071 139.96431427 -70.36819458 138.59686279 C-64.07061495 129.29700119 -57.95377288 119.88140985 -51.875 110.4375 C-60.08078239 115.00173941 -68.18117575 119.74367575 -74.875 126.4375 C-81.60014797 127.36510662 -81.60014797 127.36510662 -84.92578125 124.9453125 C-89.04594945 120.83367467 -90.89459587 118.36505073 -91.21484375 112.51171875 C-91.72623962 106.38197369 -93.37364632 101.01652978 -95.4375 95.25 C-95.9315332 93.82204102 -95.9315332 93.82204102 -96.43554688 92.36523438 C-97.2376687 90.05186853 -98.05082199 87.7430794 -98.875 85.4375 C-99.35525635 86.05077148 -99.8355127 86.66404297 -100.33032227 87.29589844 C-108.41284738 97.58047021 -117.02222907 107.43146123 -125.9375 117 C-141.05925736 133.29110677 -152.52702051 147.20575252 -158.24169922 169.03710938 C-159.01780404 171.97876806 -159.85893052 174.89898035 -160.70776367 177.8203125 C-161.4439852 180.35548687 -162.15977182 182.89633634 -162.875 185.4375 C-162.3903125 185.83839844 -161.905625 186.23929688 -161.40625 186.65234375 C-156.06053094 191.18592472 -151.41941546 196.1074808 -146.875 201.4375 C-135.23004269 195.14882629 -128.48663751 178.12815959 -124.625 165.9375 C-123.61442688 162.36919316 -122.70795429 158.78001395 -121.8203125 155.1796875 C-121.64145508 154.45458984 -121.46259766 153.72949219 -121.27832031 152.98242188 C-120.93355966 151.56641788 -120.59659835 150.14848555 -120.26855469 148.72851562 C-119.49304401 145.45994222 -118.76321676 143.26982513 -116.875 140.4375 C-116.215 140.4375 -115.555 140.4375 -114.875 140.4375 C-108.52620623 159.28423371 -110.14648306 178.70134701 -118.375 196.72265625 C-123.01543055 205.90684171 -130.08010686 217.26996392 -140.0859375 221.3359375 C-145.30498821 222.48525914 -148.88948353 222.79906043 -153.875 220.4375 C-156.4504318 218.37131079 -158.8611168 216.20074384 -161.25 213.921875 C-164.36279688 210.9758351 -167.60234966 208.20321963 -170.875 205.4375 C-171.29160889 206.22584229 -171.70821777 207.01418457 -172.13745117 207.82641602 C-180.23382072 223.12769964 -188.41344611 238.35762523 -197.0078125 253.38671875 C-200.04039179 258.69530651 -202.96535738 264.06076305 -205.875 269.4375 C-186.01279275 281.66517134 -163.85171436 290.05663844 -140.1875 285.3125 C-129.78398537 282.55862848 -121.76058644 277.94709091 -114.03125 270.48828125 C-112.07022236 268.62317344 -110.07282212 267.01094083 -107.875 265.4375 C-107.12646586 273.52166876 -109.58137892 279.31864792 -114.63671875 285.640625 C-125.65585015 297.35264296 -141.12055609 303.19746262 -157 303.75 C-176.17553889 303.31295068 -194.54881767 296.85129153 -210.875 287.0625 C-213.89255531 285.1199779 -213.89255531 285.1199779 -217.875 285.4375 C-219.74740117 287.46163546 -221.32578481 289.40766185 -222.9375 291.625 C-223.9186491 292.92072983 -224.90177089 294.21496794 -225.88671875 295.5078125 C-226.38478027 296.1668457 -226.8828418 296.82587891 -227.39599609 297.50488281 C-238.78416515 312.38582475 -251.78133518 325.34122465 -266.875 336.4375 C-267.7107959 337.0564917 -267.7107959 337.0564917 -268.56347656 337.68798828 C-282.76398346 348.12365145 -297.86733791 356.48227435 -316.015625 354.1640625 C-321.15757319 353.12389741 -324.20959319 351.19230698 -327.875 347.4375 C-328.53515625 345.2734375 -328.53515625 345.2734375 -328.875 343.4375 C-328.08738281 343.61667969 -327.29976562 343.79585938 -326.48828125 343.98046875 C-311.78282627 346.85194813 -300.10555187 342.33604052 -287.875 334.4375 C-284.01254094 331.63610158 -280.42753019 328.6195209 -276.875 325.4375 C-275.61429687 324.33921875 -275.61429687 324.33921875 -274.328125 323.21875 C-264.62625826 314.66182406 -255.86475036 305.6083279 -247.875 295.4375 C-247.30072266 294.71304687 -246.72644531 293.98859375 -246.13476562 293.2421875 C-244.20905613 290.81179567 -242.29084582 288.37567303 -240.375 285.9375 C-239.75077148 285.14730469 -239.12654297 284.35710937 -238.48339844 283.54296875 C-237.90106445 282.79660156 -237.31873047 282.05023438 -236.71875 281.28125 C-236.19474609 280.61287109 -235.67074219 279.94449219 -235.13085938 279.25585938 C-233.69195606 277.35324584 -233.69195606 277.35324584 -232.875 274.4375 C-238.48730784 269.31007905 -244.1097337 264.20179075 -249.84765625 259.21484375 C-252.20989173 257.14390513 -254.54295853 255.04237152 -256.875 252.9375 C-262.19834693 248.13842208 -267.56363339 243.3967205 -273.02734375 238.7578125 C-279.60818179 233.16308261 -286.07265898 227.48014888 -292.39453125 221.59375 C-295.83853555 218.38726324 -299.32829847 215.25025143 -302.88671875 212.171875 C-306.92896478 208.64582935 -310.89535755 205.03385722 -314.875 201.4375 C-321.53213831 206.81986714 -327.11131056 212.96495425 -332.6171875 219.5078125 C-343.87152508 232.80839328 -358.83260315 245.90175791 -376.859375 247.7421875 C-381.9038522 247.864891 -386.18135912 247.46718254 -390.875 245.4375 C-390.80859375 243.1171875 -390.80859375 243.1171875 -389.875 240.4375 C-387.50415355 239.21995563 -385.44236692 238.37791862 -382.9375 237.5625 C-371.67373286 233.46791625 -363.52688484 226.63036202 -354.875 218.4375 C-354.13507813 217.75042969 -353.39515625 217.06335938 -352.6328125 216.35546875 C-344.28866083 208.35280372 -337.1746914 199.11464834 -330.875 189.4375 C-341.63884412 182.05054815 -351.80986054 178.3979643 -364.875 179.4375 C-365.83664062 179.50952637 -366.79828125 179.58155273 -367.7890625 179.65576172 C-374.82320649 180.19073803 -381.85022338 180.79162251 -388.875 181.4375 C-389.04733154 182.14422852 -389.21966309 182.85095703 -389.3972168 183.57910156 C-405.42671632 248.58615739 -405.42671632 248.58615739 -423.4375 262.4375 C-430.79589605 266.71874861 -438.42307723 267.77390447 -446.6796875 265.75 C-454.27128825 263.2264762 -460.13034117 259.6747899 -465.3125 253.5625 C-467.63359819 248.92030362 -468.46689817 245.19811307 -467.38671875 240.16015625 C-461.77577702 223.75280532 -445.61219807 209.92866504 -433.50268555 198.1015625 C-426.71071643 191.42615163 -420.77930201 184.16711411 -415.0625 176.5625 C-413.93232578 175.0640954 -412.8008743 173.56665308 -411.66796875 172.0703125 C-411.1783667 171.41949707 -410.68876465 170.76868164 -410.18432617 170.09814453 C-408.875 168.4375 -408.875 168.4375 -406.875 166.4375 C-406.41493654 164.23499008 -406.41493654 164.23499008 -406.25 161.8125 C-406.17523438 160.99523437 -406.10046875 160.17796875 -406.0234375 159.3359375 C-405.97445312 158.70945313 -405.92546875 158.08296875 -405.875 157.4375 C-406.74640625 157.71464844 -407.6178125 157.99179688 -408.515625 158.27734375 C-428.19089825 164.26084135 -428.19089825 164.26084135 -436.0625 161.125 C-438.875 159.4375 -438.875 159.4375 -439.875 157.4375 C-440.65230796 149.66442042 -437.5494629 144.63825818 -433.125 138.5625 C-430.68023176 135.80877696 -430.68023176 135.80877696 -430.875 133.4375 C-431.7 132.715625 -432.525 131.99375 -433.375 131.25 C-435.875 128.4375 -435.875 128.4375 -436.5 125 C-435.74602976 120.70236962 -434.15826474 118.20558425 -430.875 115.4375 C-427.02148698 113.59631768 -422.92222131 112.50320929 -418.82421875 111.3359375 C-414.09400432 109.81630956 -411.59338691 108.66211015 -409.0546875 104.2734375 C-408.56331299 103.22615479 -408.56331299 103.22615479 -408.06201172 102.15771484 C-406.875 100.4375 -406.875 100.4375 -404.69897461 99.7199707 C-403.97331299 99.62675537 -403.24765137 99.53354004 -402.5 99.4375 C-397.60666924 98.70147835 -395.6583324 96.84046242 -392.6484375 93.00390625 C-386.1336284 84.71348485 -386.1336284 84.71348485 -382.875 75.4375 C-396.27687355 83.11160187 -408.15751089 91.8958555 -419.76782227 102.0637207 C-420.57110962 102.76501099 -420.57110962 102.76501099 -421.390625 103.48046875 C-421.93928223 103.96290039 -422.48793945 104.44533203 -423.05322266 104.94238281 C-424.875 106.4375 -424.875 106.4375 -427.08349609 107.94042969 C-433.86757877 112.65076909 -436.70259019 117.8481598 -440 125.3125 C-440.54148682 126.48578857 -441.08297363 127.65907715 -441.64086914 128.86791992 C-443.10904382 132.05071542 -444.54755078 135.24609038 -445.97991943 138.44512939 C-447.48820579 141.80244214 -449.02077917 145.14863663 -450.55078125 148.49609375 C-452.76123485 153.33907603 -454.96372137 158.18555774 -457.15722656 163.03623962 C-518.66519509 299.03096773 -518.66519509 299.03096773 -564.33984375 320.6015625 C-567.18660313 321.54024741 -569.50779697 321.70398597 -572.5 321.6875 C-573.91152344 321.69523438 -573.91152344 321.69523438 -575.3515625 321.703125 C-577.875 321.4375 -577.875 321.4375 -580.875 319.4375 C-580.875 318.7775 -580.875 318.1175 -580.875 317.4375 C-579.29783761 316.18716403 -577.65998678 315.01307958 -576 313.875 C-570.22215097 309.76696412 -565.01358929 305.31399741 -559.875 300.4375 C-558.98941406 299.60476563 -558.10382812 298.77203125 -557.19140625 297.9140625 C-549.99199057 290.94952138 -543.85512913 283.4523343 -537.875 275.4375 C-537.46427246 274.89287109 -537.05354492 274.34824219 -536.63037109 273.78710938 C-510.73054213 239.28181973 -492.17428185 198.94394991 -474.40576172 159.80664062 C-473.37593542 157.54003729 -472.34101 155.27574452 -471.30126953 153.01367188 C-457.75073109 123.52354243 -443.97179548 91.60749797 -443.39648438 58.65039062 C-443.28326107 55.43871498 -443.07382724 52.85264091 -441.67578125 49.93359375 C-438.55245317 47.33872465 -435.43873439 47.90521548 -431.546875 48.0390625 C-428.02325709 48.56451429 -426.21744382 49.78273033 -423.875 52.4375 C-422.47775029 55.23199942 -422.66701567 57.56433528 -422.625 60.6875 C-422.58632813 62.36585938 -422.58632813 62.36585938 -422.546875 64.078125 C-422.75539542 70.30214354 -424.47316637 76.39671768 -425.875 82.4375 C-422.55965891 80.1870984 -419.24483427 77.93593818 -415.93048096 75.68408203 C-414.77185576 74.89697804 -413.61312427 74.11003049 -412.45428467 73.32324219 C-404.97215522 68.24277415 -397.5127533 63.13454593 -390.1328125 57.90625 C-385.91696428 55.1637605 -381.92629292 55.22277683 -377.0625 55.1875 C-376.36318359 55.166875 -375.66386719 55.14625 -374.94335938 55.125 C-370.1438144 55.08908198 -366.90436995 55.8257624 -362.875 58.4375 C-360.2240931 61.17826815 -359.42556716 63.14496301 -359.375 66.9375 C-359.9682996 83.14644509 -373.45587561 98.54123727 -384.68701172 109.14892578 C-387.45017331 111.71611846 -390.22197501 114.27382028 -392.99682617 116.82836914 C-397.72912053 121.23191586 -401.80373701 125.74282175 -405.76953125 130.8515625 C-409.45878824 135.3827093 -413.66762991 139.38823568 -417.875 143.4375 C-417.12734375 143.23253906 -416.3796875 143.02757812 -415.609375 142.81640625 C-414.13210938 142.41228516 -414.13210938 142.41228516 -412.625 142 C-411.65046875 141.73316406 -410.6759375 141.46632812 -409.671875 141.19140625 C-408.74890625 140.94261719 -407.8259375 140.69382813 -406.875 140.4375 C-406.22789062 140.22867188 -405.58078125 140.01984375 -404.9140625 139.8046875 C-402.05064241 139.28905247 -399.39132987 139.73378198 -396.5 140 C-391.89004446 140.08681239 -391.89004446 140.08681239 -388.04296875 137.91796875 C-386.37779314 135.1778671 -385.14379952 132.38481555 -383.875 129.4375 C-382.34567695 126.25430676 -380.7642815 123.09739546 -379.1875 119.9375 C-378.76041748 119.06810791 -378.33333496 118.19871582 -377.89331055 117.30297852 C-375.03751203 111.54751117 -371.92332195 106.05943913 -368.5 100.625 C-361.33681713 89.21781159 -355.33050469 77.21942218 -349.24023438 65.21533203 C-326.60567985 20.63111109 -326.60567985 20.63111109 -312.9765625 14.9296875 C-308.06450754 13.77928058 -303.42140851 14.30252935 -298.82421875 16.3515625 C-294.12346996 19.31092041 -291.44319677 23.13681149 -289.875 28.4375 C-285.65344847 49.65538507 -303.05816047 78.66365164 -313.65234375 95.98046875 C-317.09822781 101.71617436 -320.18608963 107.61624432 -323.25 113.5625 C-324.06791016 115.1403125 -324.06791016 115.1403125 -324.90234375 116.75 C-326.22942608 119.31103607 -327.55358695 121.87353553 -328.875 124.4375 C-324.27602343 121.85729496 -319.67996205 119.27200651 -315.08642578 116.68212891 C-313.01678294 115.51729791 -310.94420584 114.35785979 -308.87109375 113.19921875 C-307.64309458 112.50805156 -306.41522363 111.81665651 -305.1875 111.125 C-303.54201172 110.20267578 -303.54201172 110.20267578 -301.86328125 109.26171875 C-298.99088752 107.50824441 -296.47889855 105.56102416 -293.875 103.4375 C-288.28743017 100.71185618 -281.95581634 100.62117123 -275.875 101.4375 C-272.40639741 103.04554948 -270.43050988 105.27757973 -268.765625 108.75390625 C-265.65989603 118.11195802 -267.9926539 126.25211139 -272.19604492 134.72021484 C-281.23028405 151.99194867 -292.4352476 169.42606801 -304.875 184.4375 C-303.39373643 187.87680583 -301.45072554 190.10704338 -298.8046875 192.73828125 C-297.99 193.55103516 -297.1753125 194.36378906 -296.3359375 195.20117188 C-295.48257812 196.04228516 -294.62921875 196.88339844 -293.75 197.75 C-292.91984375 198.57951172 -292.0896875 199.40902344 -291.234375 200.26367188 C-286.83839312 204.62864761 -282.36732112 208.8448219 -277.67089844 212.88452148 C-275.07360895 215.13049191 -272.57507766 217.47211298 -270.0625 219.8125 C-264.52191636 224.92972848 -258.75555364 229.71433463 -252.875 234.4375 C-251.12385082 235.87359985 -249.37386817 237.31112323 -247.625 238.75 C-243.06120024 242.48281888 -238.47412618 246.18586431 -233.875 249.875 C-233.22756836 250.39553955 -232.58013672 250.9160791 -231.91308594 251.45239258 C-231.30239258 251.94118896 -230.69169922 252.42998535 -230.0625 252.93359375 C-229.24845703 253.58606079 -229.24845703 253.58606079 -228.41796875 254.25170898 C-225.49164866 256.71595894 -225.49164866 256.71595894 -221.88671875 257.3203125 C-206.91378262 250.7496648 -195.40509775 214.64046261 -188.875 200.4375 C-189.205 200.1075 -189.535 199.7775 -189.875 199.4375 C-193.37386677 199.44665934 -196.86281795 199.57095796 -200.359375 199.6953125 C-204.95551687 199.3582621 -207.42508667 197.83741632 -210.6875 194.6875 C-212.43441684 191.3775523 -212.31412064 189.1386597 -211.875 185.4375 C-208.94062242 178.03168992 -202.79318706 173.53027742 -196.875 168.4375 C-195.52030654 167.250601 -194.16607782 166.06317116 -192.8125 164.875 C-190.71098737 163.03510425 -188.6029203 161.20574481 -186.4765625 159.39453125 C-172.04701017 146.85192038 -166.04075239 134.2065174 -161.375 115.875 C-161.08093262 114.72966797 -160.78686523 113.58433594 -160.48388672 112.40429688 C-156.39328728 96.02410423 -153.08488426 79.29591605 -151.875 62.4375 C-151.79636719 61.35339844 -151.71773438 60.26929687 -151.63671875 59.15234375 C-151.43658218 51.66302261 -152.63654773 44.92707988 -154.4519043 37.70483398 C-155.48466866 33.55767553 -156.39456611 29.74340412 -155.875 25.4375 C-152.875 23.4375 -152.875 23.4375 -150.7890625 23.46875 C-146.53584784 24.33971546 -144.27887388 25.06874559 -141 28.0625 C-129.36411833 46.54301795 -134.06285348 75.0739962 -138.5078125 95.31982422 C-139.71706708 100.4148516 -141.03342845 105.47499469 -142.46362305 110.51245117 C-143.01431901 112.7613613 -143.01431901 112.7613613 -142.875 116.4375 C-140.00909251 113.59662732 -137.14672303 110.75223864 -134.28735352 107.90478516 C-133.31757727 106.93998541 -132.3468993 105.97609105 -131.37524414 105.01318359 C-126.19268886 99.87606587 -121.11178689 94.71676282 -116.3659668 89.17138672 C-114.25291173 86.71405626 -112.0270322 84.36576854 -109.8125 82 C-101.10155713 72.61838407 -101.10155713 72.61838407 -97.75390625 60.6328125 C-97.95067852 57.06552164 -98.9163359 53.87741236 -99.875 50.4375 C-100.17932817 46.48123376 -100.10595836 43.78393755 -97.875 40.4375 C-94.69427446 38.84713723 -91.33814242 39.03124675 -87.875 39.4375 C-85.0625 41 -85.0625 41 -82.875 42.4375 C-79.04201441 41.15983814 -78.45500286 39.68493051 -76.1875 36.375 C-64.60459002 20.29638379 -45.02332137 -0.00629595 -24.8046875 -4.19921875 C-16.31242984 -5.2522587 -7.09527732 -5.38108217 0 0 Z M-59.57958984 40.33666992 C-64.33022434 45.44979359 -68.83486843 50.70661055 -73.12109375 56.21875 C-75.21905185 58.87273708 -77.45331209 61.38073763 -79.74609375 63.8671875 C-82.30762008 67.43027949 -81.99265863 71.4938706 -81.97265625 75.734375 C-81.96943359 76.93964844 -81.96621094 78.14492187 -81.96289062 79.38671875 C-81.95451172 80.64097656 -81.94613281 81.89523438 -81.9375 83.1875 C-81.93298828 84.45722656 -81.92847656 85.72695312 -81.92382812 87.03515625 C-81.91204556 90.16931836 -81.89559416 93.30338541 -81.875 96.4375 C-70.8424438 85.72015969 -60.84998126 68.56740469 -57.875 53.4375 C-57.875 52.1175 -57.875 50.7975 -57.875 49.4375 C-55.39576199 49.41064905 -52.9168116 49.39073453 -50.4375 49.375 C-49.73044922 49.36662109 -49.02339844 49.35824219 -48.29492188 49.34960938 C-46.48806441 49.34096412 -44.68112397 49.38529989 -42.875 49.4375 C-41.10542396 51.20707604 -41.4375 53.47375274 -41.4375 55.8359375 C-42.21971362 60.48731494 -44.52787616 64.51182936 -46.66015625 68.6796875 C-47.06105469 69.58976562 -47.46195313 70.49984375 -47.875 71.4375 C-47.545 72.0975 -47.215 72.7575 -46.875 73.4375 C-21.92634778 49.81328476 -21.92634778 49.81328476 -10.875 18.4375 C-11.69343032 15.0559661 -11.69343032 15.0559661 -12.875 12.4375 C-32.14431485 11.58581758 -47.32438451 27.35258023 -59.57958984 40.33666992 Z M-310.875 35.4375 C-315.95883291 40.78204229 -319.57357479 46.73550848 -323.28125 53.05859375 C-325.56089811 56.93946527 -327.93658465 60.75356205 -330.33129883 64.56420898 C-347.45851378 91.87038889 -362.80802871 120.2790659 -377.34835815 149.03375244 C-378.0295227 150.3798021 -378.71303477 151.72466652 -379.3989563 153.06829834 C-380.34720313 154.92950244 -381.28458291 156.7957604 -382.21875 158.6640625 C-382.75693359 159.73221191 -383.29511719 160.80036133 -383.84960938 161.90087891 C-384.18798828 162.73796387 -384.52636719 163.57504883 -384.875 164.4375 C-384.545 165.0975 -384.215 165.7575 -383.875 166.4375 C-383.13636719 166.23253906 -382.39773438 166.02757812 -381.63671875 165.81640625 C-374.6920355 163.9721384 -368.04902786 162.7967457 -360.875 162.4375 C-360.13894531 162.38464844 -359.40289062 162.33179688 -358.64453125 162.27734375 C-346.69033422 161.7765304 -336.60252246 166.20177512 -326.30859375 171.6953125 C-323.64470536 173.04695553 -321.71474392 173.81542017 -318.875 174.4375 C-308.69772357 160.83777663 -299.7654967 146.45743387 -292.0625 131.3125 C-291.71880371 130.6436377 -291.37510742 129.97477539 -291.02099609 129.28564453 C-290.23915811 127.70070258 -289.54714376 126.07198291 -288.875 124.4375 C-289.205 123.7775 -289.535 123.1175 -289.875 122.4375 C-307.94449435 130.97911622 -307.94449435 130.97911622 -323.95703125 142.734375 C-330.19558531 148.27410936 -336.3741758 152.02210196 -344.875 152.4375 C-347.9375 151.6875 -347.9375 151.6875 -349.875 150.4375 C-352.27245909 145.64258183 -351.86900211 139.50291909 -350.24658203 134.49951172 C-347.29511653 127.15575007 -343.37197628 120.26262703 -339.4465332 113.40649414 C-329.12969883 95.35150773 -320.68884901 76.08660246 -313.5625 56.5625 C-313.19568115 55.56597412 -312.8288623 54.56944824 -312.45092773 53.54272461 C-310.42601239 47.78679292 -309.30641256 42.52729463 -308.875 36.4375 C-309.865 35.9425 -309.865 35.9425 -310.875 35.4375 Z M-61.76171875 168.08984375 C-68.14700768 174.1816955 -68.14700768 174.1816955 -71.875 181.4375 C-71.06417969 181.46328125 -70.25335938 181.4890625 -69.41796875 181.515625 C-60.46243446 181.97434853 -52.43901938 183.39482041 -44.875 188.4375 C-43.555 188.4375 -42.235 188.4375 -40.875 188.4375 C-39.25440684 186.71026863 -39.25440684 186.71026863 -37.96484375 184.34375 C-37.44986328 183.4775 -36.93488281 182.61125 -36.40429688 181.71875 C-35.87900391 180.8009375 -35.35371094 179.883125 -34.8125 178.9375 C-34.01875977 177.6071875 -34.01875977 177.6071875 -33.20898438 176.25 C-27.04465333 165.79942801 -27.04465333 165.79942801 -26.1875 153.9375 C-26.30738281 152.8959375 -26.42726563 151.854375 -26.55078125 150.78125 C-26.65777344 150.0078125 -26.76476562 149.234375 -26.875 148.4375 C-41.02547001 147.8552803 -52.52926487 158.519823 -61.76171875 168.08984375 Z M-386.875 169.4375 C-385.875 171.4375 -385.875 171.4375 -385.875 171.4375 Z M-179.875 175.4375 C-181.36 177.9125 -181.36 177.9125 -182.875 180.4375 C-181.555 180.1075 -180.235 179.7775 -178.875 179.4375 C-179.205 178.1175 -179.535 176.7975 -179.875 175.4375 Z M-84.875 202.4375 C-85.12873128 206.75093181 -85.29537032 210.37551182 -83.6875 214.4375 C-81.3833628 216.97999622 -80.266672 217.13348458 -76.875 217.4375 C-68.56865204 215.44148147 -62.73573522 212.41447368 -57.875 205.4375 C-56.89377445 204.41907159 -55.89838203 203.413558 -54.875 202.4375 C-62.8997049 195.51385926 -75.98400099 198.28836713 -84.875 202.4375 Z M-422.0625 210 C-422.94977783 210.83362061 -422.94977783 210.83362061 -423.85498047 211.68408203 C-425.02176985 212.78342694 -426.18622968 213.88525049 -427.34814453 214.98974609 C-428.52309849 216.1038294 -429.71020008 217.20511164 -430.90234375 218.30078125 C-438.61544482 225.59899669 -445.10283931 234.55621294 -450.875 243.4375 C-449.95986681 245.72533297 -449.22015354 247.17199728 -447.25 248.6875 C-442.27195689 250.25951361 -438.37419002 250.15711121 -433.75 247.9375 C-421.95632416 237.68212971 -415.66972394 219.65363771 -413.875 204.4375 C-417.39072572 204.4375 -419.61702328 207.68449268 -422.0625 210 Z " fill="#40677C" transform="translate(580.875,66.5625)"/>
<path d="M0 0 C6.22916667 -0.47916667 6.22916667 -0.47916667 9.3125 1.4375 C16.90691644 12.96976201 12.99382725 32.81404206 12 46 C13.03640625 45.65066406 14.0728125 45.30132812 15.140625 44.94140625 C16.51038977 44.48169068 17.88018293 44.0220597 19.25 43.5625 C19.93191406 43.33240234 20.61382813 43.10230469 21.31640625 42.86523438 C31.31576664 39.51593405 39.14976275 38.62211678 49 43 C48.12202 49.02043426 45.76884919 51.83932438 41.15625 55.703125 C36.28777609 59.24602433 31.1532329 62.34237727 26.02832031 65.49780273 C19.67109358 69.45637101 14.27628587 73.66100785 9 79 C8.41347656 79.55880859 7.82695313 80.11761719 7.22265625 80.69335938 C2.00316925 85.73582888 -2.35001225 91.14628233 -6.625 97 C-7.2540625 97.85078125 -7.883125 98.7015625 -8.53125 99.578125 C-9.76584388 101.24815655 -10.99802794 102.91997288 -12.22753906 104.59375 C-14.79537966 108.07978815 -17.39525145 111.54149288 -20 115 C-16.30196648 112.13118195 -12.93531362 109.05433057 -9.5625 105.8125 C1.58680302 95.4014569 15.87382541 85.51038403 31.68359375 85.71875 C36.45608059 86.29820877 39.70302548 88.57751182 42.9375 92.125 C45.11794396 98.02502482 45.04566293 102.58501658 42.5234375 108.41015625 C34.58460477 123.56554359 21.72868129 134.34196766 8.54296875 144.859375 C7.70378906 145.56578125 6.86460937 146.2721875 6 147 C4.6696875 148.10408203 4.6696875 148.10408203 3.3125 149.23046875 C0.28762541 152.85316484 -0.35141076 155.99844763 -1.1875 160.5625 C-1.34766602 161.35446777 -1.50783203 162.14643555 -1.67285156 162.96240234 C-2.9306003 169.2806045 -4.05047032 175.62815611 -5 182 C13.74084719 170.20020732 29.25888043 155.00303648 42 137 C43.65 137.33 45.3 137.66 47 138 C47 140.64 47 143.28 47 146 C47.48726562 145.05382812 47.97453125 144.10765625 48.4765625 143.1328125 C54.08502527 132.55890404 60.8384072 123.36774635 68.34130859 114.06738281 C70.68895906 111.14128565 72.97277157 108.16850764 75.25 105.1875 C76.03890625 104.16011719 76.8278125 103.13273437 77.640625 102.07421875 C78.80851562 100.55248047 78.80851562 100.55248047 80 99 C81.66609253 96.83289153 83.33305144 94.66645005 85 92.5 C85.82032825 91.43360587 86.64064071 90.36719959 87.4609375 89.30078125 C91.640625 83.8671875 95.8203125 78.43359375 100 73 C98.80503906 73.17917969 97.61007812 73.35835938 96.37890625 73.54296875 C78.82671791 75.97718693 78.82671791 75.97718693 73 72 C70.420947 69.10642834 69.24497608 67.14322169 68.4375 63.375 C69.2555777 59.92089417 71.14349864 59.01843896 74 57 C76.68457031 55.79907227 76.68457031 55.79907227 79.578125 54.81640625 C80.64901367 54.44837891 81.71990234 54.08035156 82.82324219 53.70117188 C84.5194873 53.1375293 84.5194873 53.1375293 86.25 52.5625 C87.40918945 52.16998047 88.56837891 51.77746094 89.76269531 51.37304688 C126.02554781 39.19484773 126.02554781 39.19484773 136.9375 43.125 C140.65462788 45.40079258 141.72237315 46.84771275 143 51 C143.20584307 54.70517526 142.79049709 56.93239931 140.5625 59.94140625 C135.96450277 64.83635747 130.64796642 68.31491125 125.02734375 71.9296875 C120.27009093 75.18303459 116.15008966 79.01678457 112 83 C111.38640625 83.57363281 110.7728125 84.14726563 110.140625 84.73828125 C104.9341102 89.74178974 100.47759133 95.3475951 96 101 C95.23945312 101.95519531 94.47890625 102.91039063 93.6953125 103.89453125 C78.09399913 123.81817571 64.78299487 144.93575738 52.875 167.25 C52.42552002 168.08265381 51.97604004 168.91530762 51.51293945 169.77319336 C48.59438851 175.3540459 46.60025478 180.91161878 45 187 C52.2402748 185.68964352 58.28255816 183.28888573 64.875 180.0625 C65.81085938 179.61970703 66.74671875 179.17691406 67.7109375 178.72070312 C73.75590186 175.80678712 77.50729619 173.97566493 79.91015625 167.4765625 C80.25522217 166.55174072 80.60028809 165.62691895 80.95581055 164.67407227 C81.50362183 163.16478149 81.50362183 163.16478149 82.0625 161.625 C82.45026611 160.57948975 82.83803223 159.53397949 83.23754883 158.45678711 C85.45398249 152.42760986 87.56628593 146.3694187 89.6015625 140.27734375 C89.92618721 139.31199707 89.92618721 139.31199707 90.25737 138.32714844 C91.31356592 135.18560462 92.35557067 132.04157435 93.37329102 128.88720703 C96.22643946 120.32954828 101.2822042 107.3588979 110 103 C115.39575915 102.64617973 118.55988065 102.60461462 123 106 C125.53987298 108.53987298 125.93243883 110.43583316 126.08520508 113.97265625 C126.01155936 116.31617805 125.9197919 118.65776317 125.8125 121 C125.79380859 121.76828125 125.77511719 122.5365625 125.75585938 123.328125 C125.32069235 133.03922065 123.02159984 142.52018645 121 152 C122.13203857 151.60208252 123.26407715 151.20416504 124.43041992 150.79418945 C128.73781149 149.28329744 133.04997998 147.78643518 137.36352539 146.29321289 C139.20985331 145.65201818 141.0549643 145.00730567 142.89868164 144.35864258 C205.09890271 122.49257196 205.09890271 122.49257196 231.375 134.875 C238.43516799 138.82293067 242.21607341 143.16384282 244.58984375 150.9296875 C246.21156367 159.11551185 245.23555524 166.80069164 241 174 C238.24575936 177.60378048 235.22357157 180.81422576 232 184 C231.40574219 184.61617187 230.81148437 185.23234375 230.19921875 185.8671875 C213.02164654 202.39726808 186.72711583 209.18962574 163.625 209.3125 C162.10894165 209.32095947 162.10894165 209.32095947 160.56225586 209.32958984 C154.42004815 209.26982399 148.94650955 208.54510755 143 207 C142.4375 205.0625 142.4375 205.0625 142 203 C143.69811688 201.30188312 145.96456341 201.60901933 148.29296875 201.38671875 C175.83725075 198.60077443 202.89801381 190.44977141 223 170 C226.06809735 165.3902219 227.90946305 160.58670157 227 155 C226.05945016 152.63450124 226.05945016 152.63450124 224 151 C196.9691991 141.6997987 160.94727702 156.20173505 135.625 165.25 C134.73409668 165.56678711 133.84319336 165.88357422 132.92529297 166.20996094 C132.09658691 166.51708008 131.26788086 166.82419922 130.4140625 167.140625 C129.7020166 167.40391602 128.9899707 167.66720703 128.25634766 167.93847656 C125.14960796 169.40007624 122.6567025 170.79237242 120 173 C119.04254016 175.72136746 118.55981334 177.74883986 118.22265625 180.5546875 C118.11180191 181.33383514 118.00094757 182.11298279 117.88673401 182.91574097 C116.35901977 194.58469637 115.97411635 206.3792369 115.4375 218.125 C115.31291094 220.66736997 115.18724753 223.20968751 115.06054688 225.75195312 C114.54881399 236.09769602 114.07084807 246.44496532 113.59555054 256.79243469 C111.35529246 305.43696578 108.34979008 354.62125665 89 400 C88.52675293 401.11592529 88.52675293 401.11592529 88.04394531 402.25439453 C69.54960441 445.174681 35.56003626 479.74200468 -7.96044922 497.21142578 C-25.29210345 503.91255616 -43.70289627 506.61569647 -61.875 501.94921875 C-62.926875 501.47935547 -62.926875 501.47935547 -64 501 C-64.495 499.515 -64.495 499.515 -65 498 C-64.45287354 497.96036133 -63.90574707 497.92072266 -63.34204102 497.87988281 C-23.29719316 494.85258096 13.03993091 478.85206257 40.6875 449.1875 C86.05625361 396.28518952 92.83172041 326.80578428 97 260 C97.04812836 259.23466949 97.09625671 258.46933899 97.14584351 257.68081665 C97.78629168 247.34817025 98.16941841 237.02908118 98.38870239 226.67956543 C98.72141931 211.39248179 99.5184557 196.22518598 101 181 C93.48440178 183.87339104 93.48440178 183.87339104 88.51953125 189.86328125 C87.91702024 191.33306307 87.3489893 192.81735541 86.8125 194.3125 C86.49410156 195.10430664 86.17570313 195.89611328 85.84765625 196.71191406 C85.19224042 198.34200085 84.54975187 199.97734598 83.92041016 201.61767578 C73.36524878 228.93790516 57.39676203 255.4099372 30.0234375 268.4140625 C24.58690813 270.64319991 19.78387533 272.14263843 13.875 272.125 C13.00617188 272.12757813 12.13734375 272.13015625 11.2421875 272.1328125 C9 272 9 272 7 271 C7.15625 269.17578125 7.15625 269.17578125 8 267 C10.40625 265.54296875 10.40625 265.54296875 13.5 264.1875 C19.37596437 261.40926625 24.08457687 258.21943402 29 254 C29.80050781 253.34386719 30.60101562 252.68773437 31.42578125 252.01171875 C47.88741743 238.00780741 58.24345033 217.95398474 68 199 C66.97519531 199.42152344 65.95039062 199.84304687 64.89453125 200.27734375 C63.53394819 200.8309603 62.17326584 201.38433286 60.8125 201.9375 C60.13896484 202.21529297 59.46542969 202.49308594 58.77148438 202.77929688 C51.2234284 205.83533905 44.16333115 206.78536113 36 206 C32.15518112 204.24622296 30.55615521 202.77861729 28.125 199.375 C25.01474942 190.04424826 27.96515343 181.99484647 31 173 C31.35073256 171.67113749 31.69261458 170.33955332 32 169 C31.3709375 169.845625 30.741875 170.69125 30.09375 171.5625 C21.97546191 182.37676887 13.87948514 190.44899036 2.48828125 197.80078125 C1.59616943 198.37820068 1.59616943 198.37820068 0.68603516 198.96728516 C-1 200 -1 200 -3.89453125 201.41796875 C-6.2086868 202.81871697 -6.2086868 202.81871697 -6.62988281 205.33935547 C-7.16353765 210.61746931 -7.08106974 215.85154478 -7.02734375 221.15234375 C-7.0146991 223.56184753 -7.00233802 225.97135282 -6.99023438 228.38085938 C-6.96541462 232.16402914 -6.93741516 235.94712017 -6.90405273 239.73022461 C-6.87379597 243.39176935 -6.85606087 247.05321366 -6.83984375 250.71484375 C-6.82638412 251.84107651 -6.8129245 252.96730927 -6.79905701 254.12767029 C-6.7597841 266.462817 -6.7597841 266.462817 -10.1875 271.875 C-13.10398007 273.68522901 -15.60171539 273.88281777 -19 274 C-23.58280003 272.18819534 -25.62997652 269.23218478 -28 265 C-31.05194219 253.55521679 -28.91826688 240.59743072 -27.06738281 229.1328125 C-26.35251436 224.69757167 -25.82271966 220.51326191 -26 216 C-27.14597656 216.48210937 -28.29195312 216.96421875 -29.47265625 217.4609375 C-31.00251902 218.09916246 -32.53247175 218.73717184 -34.0625 219.375 C-35.19075195 219.85066406 -35.19075195 219.85066406 -36.34179688 220.3359375 C-43.58926386 223.34787183 -50.08954524 225.6379399 -58 225 C-61.58552881 223.36312815 -62.79315055 222.31027417 -65 219 C-65.79187826 214.59911903 -66.28158408 209.92042843 -63.71484375 206.07421875 C-62.52687464 204.94037124 -61.30061699 203.84582198 -60.046875 202.78515625 C-57.79507867 200.82128045 -56.082282 198.73349521 -54.25 196.375 C-49.74664955 190.63388656 -45.03760107 185.07992637 -40.29443359 179.53686523 C-39.4288801 178.50920412 -38.57756971 177.46938235 -37.74072266 176.41821289 C-34.32945214 172.15646673 -30.50246213 169.2051834 -26.109375 166.02734375 C-23.674269 163.68693632 -23.29831401 162.3101381 -23 159 C-24.65 158.01 -26.3 157.02 -28 156 C-27.93124923 152.56246162 -27.84522308 149.94299953 -25.48046875 147.3046875 C-24.27388942 146.29370103 -23.04387769 145.30983076 -21.7890625 144.359375 C-17.87708905 141.3869585 -16.12517299 138.44354352 -14 134 C-13.67 133.67 -13.34 133.34 -13 133 C-11.72125 133.144375 -10.4425 133.28875 -9.125 133.4375 C-1.27779271 133.49977942 4.10654082 127.79670338 9.453125 122.62890625 C14.81096611 116.93392208 19.02773795 110.7183596 23 104 C12.72748504 108.43372986 4.88039117 113.90094162 -3.31396484 121.45361328 C-4.95669099 122.96027812 -6.62340304 124.43444988 -8.30078125 125.90234375 C-17.88270904 134.3498019 -24.08704777 143.03911396 -30.08056641 154.24609375 C-33.7942635 161.00906554 -38.8711014 169.4355507 -46 173 C-49.3125 173.375 -49.3125 173.375 -53 173 C-56.81260653 169.85045547 -58.82798111 167.75459264 -59.3125 162.8125 C-58.98665853 144.82605097 -48.5444096 130.30236361 -38.28125 116.45703125 C-31.5946254 107.39585805 -25.6266234 98.17296114 -20.0625 88.375 C-19.37218379 87.16771763 -18.68143092 85.96068483 -17.99023438 84.75390625 C-16.32253568 81.83834908 -14.65923403 78.9203799 -13 76 C-13.66386719 76.20496094 -14.32773437 76.40992187 -15.01171875 76.62109375 C-15.89472656 76.89050781 -16.77773438 77.15992187 -17.6875 77.4375 C-18.55761719 77.70433594 -19.42773438 77.97117187 -20.32421875 78.24609375 C-29.51680896 80.83612282 -39.26068989 81.42427574 -48 77 C-50.60499836 74.85222999 -50.99065265 74.03365047 -51.9375 70.625 C-52 67 -52 67 -50.6875 64.1875 C-45.87563576 60.27086631 -40.2340583 60.24643736 -34.2109375 59.58203125 C-32.84882476 59.43088641 -31.48684732 59.27851792 -30.125 59.125 C-29.44260254 59.04886475 -28.76020508 58.97272949 -28.05712891 58.89428711 C-22.52263261 58.21183498 -17.49019416 56.75791989 -12.2578125 54.8046875 C-10 54 -10 54 -8 54 C-8.02094727 53.14470703 -8.04189453 52.28941406 -8.06347656 51.40820312 C-8.84396907 14.71517543 -8.84396907 14.71517543 0 0 Z M103 152 C100.6109802 156.53338332 100.6109802 156.53338332 100.3125 161.4375 C100.539375 161.953125 100.76625 162.46875 101 163 C102.66641006 162.009245 102.66641006 162.009245 104 160 C104.27345479 157.28153765 104.13491285 154.74322801 104 152 C103.67 152 103.34 152 103 152 Z M-31 191 C-33.41166328 193.60291704 -35.72582688 196.27652217 -38 199 C-37.01 199.495 -37.01 199.495 -36 200 C-33.09521319 198.85013962 -33.09521319 198.85013962 -29.9375 197.1875 C-28.85339844 196.64480469 -27.76929688 196.10210937 -26.65234375 195.54296875 C-23.90657748 194.27002664 -23.90657748 194.27002664 -23 192 C-22.95977609 189.6670134 -22.95679753 187.33293334 -23 185 C-25.79647906 185 -29.07947032 189.19643775 -31 191 Z " fill="#40677C" transform="translate(708,0)"/>
<path d="M0 0 C0.78117187 0.13599609 1.56234375 0.27199219 2.3671875 0.41210938 C7.78238651 1.42859875 12.6244556 2.87869485 16.875 6.5625 C18.72875708 10.47598716 18.80097087 13.77838461 18 17.9375 C9.8947713 39.89919228 -13.20723739 65.7290051 -34 75.9375 C-36.81021251 76.67562544 -39.0748064 76.88230767 -42 76.9375 C-41.45748907 72.75815655 -38.95995453 70.080172 -36.375 66.9375 C-35.37184844 65.6863765 -34.37065858 64.43367841 -33.37109375 63.1796875 C-32.55874268 62.16213379 -32.55874268 62.16213379 -31.72998047 61.12402344 C-22.03603204 48.87183573 -12.97685756 36.37615886 -5 22.9375 C-12.81288932 24.050095 -18.36799774 27.18124227 -24.98812866 31.38201904 C-28.05067562 33.32533301 -31.13899005 35.22716978 -34.22265625 37.13671875 C-34.86000198 37.53316589 -35.49734772 37.92961304 -36.15400696 38.33807373 C-42.47545765 42.26060704 -48.89566784 46.00523054 -55.33157349 49.73590088 C-63.91848836 54.71705985 -72.47627733 59.73069454 -80.8125 65.125 C-81.76129028 65.73867432 -81.76129028 65.73867432 -82.72924805 66.36474609 C-86.67558218 68.96191077 -90.45752643 71.74109804 -94.2097168 74.61108398 C-99.57795874 78.58840002 -103.47693444 79.55874434 -110 78.9375 C-114.56944444 76.79861111 -114.56944444 76.79861111 -116 73.9375 C-116.375 70.5625 -116.375 70.5625 -116 66.9375 C-111.46560579 62.51814328 -105.55173163 59.43870531 -100.1875 56.125 C-98.01427076 54.77482353 -95.84109515 53.42456073 -93.66796875 52.07421875 C-92.55856934 51.38634277 -91.44916992 50.6984668 -90.30615234 49.98974609 C-85.19641338 46.81794978 -80.098474 43.62735982 -75 40.4375 C-73.00006411 39.18739744 -71.00006391 37.93739774 -69 36.6875 C-68.01 36.06875 -67.02 35.45 -66 34.8125 C-57 29.1875 -57 29.1875 -53.99560547 27.30981445 C-52.01018064 26.06888348 -50.02482821 24.82783669 -48.03955078 23.58666992 C-42.81716058 20.32192459 -37.59325809 17.05963246 -32.3671875 13.80078125 C-31.28050781 13.12273438 -30.19382812 12.4446875 -29.07421875 11.74609375 C-26.99655843 10.44977577 -24.91845848 9.15416204 -22.83984375 7.859375 C-21.90011719 7.27285156 -20.96039063 6.68632813 -19.9921875 6.08203125 C-19.11143555 5.53893311 -18.23068359 4.99583496 -17.32324219 4.4362793 C-14.8009618 2.86465587 -14.8009618 2.86465587 -11.8828125 0.4453125 C-7.66402304 -1.76126302 -4.5356038 -0.94678858 0 0 Z " fill="#40677C" transform="translate(223,32.0625)"/>
</svg>
