<?xml version="1.0" encoding="UTF-8"?> <svg xmlns="http://www.w3.org/2000/svg" id="_圖層_2" viewBox="0 0 3766.01 507.35"><g id="_圖層_1-2"><g><path d="m243.43,145.06H5.93V46.53h237.49v98.54Zm-127.05-15.82V62.51H22.38v66.74h93.99Zm108.09,153.99h-15.98v-15.35H40.4v15.35h-15.82v-116.71h199.89v116.71Zm-15.98-74.73v-26H40.4v26h168.09Zm0,43.71v-27.57H40.4v27.57h168.09ZM88.81,32.43l-14.41,8.62c-7.73-10.44-17.7-21.04-29.92-31.8L58.26,0c12.53,10.44,22.72,21.25,30.55,32.43Zm2.19,82.4l-13.47,7.68c-8.77-18.07-18.28-32.58-28.51-43.55l12.85-7.99c12.53,13.89,22.25,28.51,29.14,43.86Zm135.35,14.41V62.51h-93.05v66.74h93.05Zm-26.63-51.85c-9.3,17.55-19.22,32.58-29.77,45.12l-14.41-7.99c10.86-12.85,20.78-27.36,29.76-43.55l14.41,6.42Zm6.11-69.71c-10.65,13.89-20.78,24.81-30.39,32.74l-15.04-9.24c10.55-8.25,20.57-18.64,30.08-31.17l15.35,7.68Z" style="fill:#40677c;"></path><path d="m454.84,153.99l-11.91,13.79c-6.27-13.58-14.05-26.84-23.34-39.79v156.66h-16.76V119.37c-14.31,34.15-27.99,59.79-41.04,76.92l-11.59-11.75c19.84-27.67,37.07-63.86,51.7-108.56h-48.09v-15.98h49.03V3.45h16.76v56.55h33.99v15.98h-33.99v26c14.62,17.86,26.37,35.2,35.25,52.01Zm175.46-7.05h-78.33v45.9h71.28v15.98h-71.28v75.82h-16.92v-75.82h-71.28v-15.98h71.28v-45.9h-77.39v-16.29h48.88c-5.22-19.21-12.64-38.9-22.25-59.06l12.22-9.4h-32.74v-15.98h70.34c-2.93-11.7-7.99-24.23-15.2-37.6l15.82-6.42c7.21,14.52,12.85,29.19,16.92,44.02h71.59v15.98h-31.17l11.28,8.77c-3.97,18.28-12.12,38.17-24.44,59.69h51.38v16.29Zm-41.67-84.75h-89.14c10.97,25.69,19.06,48.51,24.28,68.46h37.28c9.5-17.13,18.69-39.95,27.57-68.46Z" style="fill:#40677c;"></path><path d="m975.8,261.15l-8.62,14.41c-41.15-13.99-75.25-32.06-102.3-54.2,1.77,7.94,2.66,16.87,2.66,26.79,0,9.4-1.8,16.84-5.4,22.32-3.6,5.48-8.83,9.03-15.67,10.65-6.84,1.62-18.46,2.43-34.86,2.43l-5.48-15.67c4.49-.21,13.89-.31,28.2-.31,11.8,0,17.7-8.3,17.7-24.91,0-5.74-.89-11.44-2.66-17.08-42.19,25.48-90.97,41.93-146.32,49.35l-8.62-14.41c59.01-7,108.82-23.24,149.45-48.72-1.25-4.8-3.6-9.09-7.05-12.85-38.75,21.1-81.83,34.78-129.24,41.04l-7.99-15.04c48.77-4.8,91.23-17.23,127.36-37.28-3.24-3.55-7.1-6.53-11.59-8.93-32.38,14-66.37,22.4-101.98,25.22l-7.05-14.41c36.76-1.88,71.64-9.97,104.65-24.28h-70.97v-14.88h189.87v14.88h-87.57c-4.39,2.82-8.56,5.17-12.53,7.05,10.76,6.68,20.21,16.92,28.35,30.7,28.3-5.74,55.46-15.25,81.46-28.51l11.91,10.97c-20.47,10.86-44.65,20.16-72.53,27.88,28.09,21.41,60.36,37.34,96.81,47.78Zm-1.88-221.04h-278.54v-15.67h133.78c-2.09-4.18-5.59-10.08-10.5-17.7l15.04-5.8c4.7,7,8.98,14.83,12.85,23.5h127.36v15.67Zm-8.3,127.05h-16.14v-32.43h-228.09v33.05h-16.29v-48.09h260.52v47.47Zm-34.78-63.6h-190.81v-48.41h190.81v48.41Zm-16.92-15.04v-18.33h-157.91v18.33h157.91Z" style="fill:#40677c;"></path><path d="m1143.34,145.06l-12.85,10.18c-6.79-10.55-16.45-23.29-28.98-38.22v166.21h-15.67V116.08c-11.07,33-23.5,60.63-37.28,82.87l-9.87-14.41c19.32-33.42,34.62-69.4,45.9-107.94h-41.67v-15.67h42.92V3.13h15.67v57.81h33.37v15.67h-33.37v17.7c17.23,18.38,31.17,35.3,41.83,50.76Zm176.4,131.12h-194.1v-15.67h27.57V82.71h53.58c2.3-6.89,5.17-17.02,8.62-30.39h-79.42v-16.45h83.03c2.19-9.71,4.44-21.36,6.74-34.93l15.98,3.92c-1.04,7.73-3.08,18.07-6.11,31.02h76.14v16.45h-79.9c-2.3,10.03-4.96,20.16-7.99,30.39h67.05v177.8h28.82v15.67Zm-44.96-148.82v-28.82h-105.12v28.82h105.12Zm0,43.39v-28.04h-105.12v28.04h105.12Zm0,44.18v-28.51h-105.12v28.51h105.12Zm0,45.59v-30.86h-105.12v30.86h105.12Z" style="fill:#40677c;"></path><path d="m1664.3,120.94h-78.64v136.29c0,5.43-1.75,10.52-5.25,15.27-3.5,4.75-7.7,7.78-12.61,9.09-4.91,1.3-19.37,1.96-43.39,1.96-7.1,0-13.94-.1-20.52-.31l-6.42-17.23c10.55.63,21.31.94,32.27.94,16.08,0,25.64-.23,28.67-.71,3.03-.47,5.51-2.06,7.44-4.78,1.93-2.71,2.9-5.48,2.9-8.3V123.76c-39.38,65.38-97.75,109.87-175.14,133.47l-10.65-15.04c78.64-22.56,134.36-62.98,167.15-121.25h-135.35l13.47-93.37h-23.5V9.87h242.66v17.7h-61.72v76.76h78.64v16.61Zm-95.56-16.61V27.57h-122.98l-11.12,76.76h134.1Z" style="fill:#40677c;"></path><path d="m2006.05,225.9h-67.68v31.33c0,17.96-9.97,26.94-29.92,26.94-7.83,0-17.76-.21-29.76-.63l-7.68-15.98c6.79.31,15.2.47,25.22.47,12.53,0,19.84-.57,21.93-1.72,2.09-1.15,3.13-3.29,3.13-6.42v-34h-194.1v-15.04h194.1v-16.14h17.07v16.14h67.68v15.04Zm-4.23-187.36h-126.27v22.09h101.36v87.26h-16.76c15.25,13.26,28.3,27.62,39.16,43.08l-13.47,9.24c-5.85-8.56-10.96-14.99-15.35-19.27-86.27,6.58-163.81,10.03-232.64,10.34l-4.23-14.88c38.95.31,80.68-.52,125.17-2.51v-26h-101.98V60.63h101.98v-22.09h-127.36v-14.73h127.36V3.92h16.76v19.9h126.27v14.73Zm-143.03,57.96v-21.46h-85.38v21.46h85.38Zm0,36.97v-22.71h-85.38v22.71h85.38Zm-20.83,128.93l-10.65,12.85c-15.14-12.95-30.86-23.55-47.15-31.8l10.65-12.38c14.93,7.1,30.65,17.55,47.15,31.33Zm122.51-165.9v-21.46h-84.91v21.46h84.91Zm0,36.97v-22.71h-84.91v22.71h84.91Zm-3.76,33.68c-5.95-5.95-9.92-9.71-11.91-11.28l10.5-7.99h-79.74v25.06c33.63-1.77,60.68-3.71,81.15-5.8Z" style="fill:#40677c;"></path><path d="m2350.62,203.34h-130.18v81.62h-17.08v-81.62h-131.9v-15.98h131.9v-26.32h-117.81v-15.04h117.81v-25.07h-124.54v-15.67h83.81c-5.22-9.29-11.23-17.65-18.02-25.07l12.22-7.68h-85.38v-16.13h105.9V4.54h16.45v51.85h36.19V4.54h15.98v51.85h104.02v16.13h-83.5l11.59,7.99c-3.66,8.04-8.98,16.29-15.98,24.75h81.15v15.67h-122.82v25.07h115.14v15.04h-115.14v26.32h130.18v15.98Zm-175.77,24.44c-23.6,18.59-54.2,34.93-91.8,49.03l-10.65-14.1c40.42-14.41,70.5-29.71,90.23-45.9l12.22,10.97Zm-30.24-186.73l-14.1,8.3c-7.83-10.34-18.33-21.09-31.49-32.27l14.57-10.03c12.53,11.59,22.87,22.93,31.02,34Zm117.81,31.49h-101.67c9.82,13.47,16.87,24.39,21.15,32.74h60.31c10.23-13.26,16.97-24.18,20.21-32.74Zm88.51,194.1l-9.56,13.16c-32.79-21.3-64.02-38.22-93.68-50.76l9.56-12.85c36.13,15.67,67.36,32.48,93.68,50.44Zm-26-251.59c-8.88,12.53-19.69,23.66-32.43,33.37l-14.73-8.3c14.31-12.22,25.01-23.03,32.12-32.43l15.04,7.36Z" style="fill:#40677c;"></path><path d="m2694.09,157.6h-103.86v17.23h78.17v109.03h-15.98v-11.44h-193.78v11.44h-16.45v-109.03h82.25c.63-8.35.94-14.1.94-17.23h-109.66v-14.57h278.38v14.57Zm-127.36-134.88h-81.77l8.62,5.48c-1.67,3.24-3.39,6.11-5.17,8.62h65.8v13.16h-35.25c-.31,3.66-1.04,8.3-2.19,13.94h43.55v13.79h-40.42c10.34,5.85,21.78,13.73,34.31,23.66l-9.24,10.65c-11.38-10.13-24.12-18.9-38.22-26.32-8.88,10.55-22.98,18.9-42.3,25.07l-8.62-12.22c17.02-4.28,29.92-11.23,38.69-20.84h-38.69v-13.79h45.12c1.98-4.49,2.98-9.14,2.98-13.94h-27.88c-3.03,2.61-6.68,5.33-10.97,8.15l-11.91-9.09c11.38-7.62,20.16-16.4,26.32-26.32h-34.31v85.69c0,1.99.81,3.76,2.43,5.33,1.62,1.57,3.37,2.35,5.25,2.35h101.04v13.79h-100.73c-15.56,0-23.34-7.99-23.34-23.97V22.71h-9.71v-14.41h146.63v14.41Zm85.69,235.61v-37.6h-54.52c-9.92,0-16.37-2.19-19.35-6.58-2.98-4.39-4.46-10.03-4.46-16.92v-7.99h-37.44c-7.21,20.68-28.2,34.73-62.98,42.14l-7.99-14.88c27.26-3.76,45.43-12.85,54.52-27.26h-61.57v69.08h193.78Zm-31.49-12.85h-131.91v-13.79h131.91v13.79Zm-46.84-70.65v-17.23h-32.74c0,5.22-.42,10.97-1.25,17.23h34Zm117.49-123.45h-29.29c-11.49,0-17.23-6.21-17.23-18.64v-9.4h-44.96c-2.3,13.16-9.56,24.54-21.78,34.15l-12.85-9.4c14.1-7.41,20.62-20.37,19.58-38.85h75.35v24.12c0,2.82,1.51,4.23,4.54,4.23h26.63v13.79Zm-2.04,73.47l-8.62,11.75c-11.18-7.31-25.69-15.3-43.55-23.97-20.58,11.07-42.19,18.64-64.86,22.71l-7.05-13.16c18.27-3.45,36.45-9.29,54.52-17.55-11.07-5.74-25.17-11.64-42.3-17.7l6.42-8.62h-13.79v-14.41h108.72v14.41c-8.67,10.44-17.86,18.85-27.57,25.22,8.46,4.39,21.15,11.49,38.07,21.31Zm-37.13,81.77v-17.39h-62.19v11.59c0,3.86,1.88,5.8,5.64,5.8h56.55Zm4.86-128.3h-63.6c24.75,10.34,38.75,16.29,41.98,17.86,8.46-5.53,15.67-11.49,21.62-17.86Z" style="fill:#40677c;"></path><path d="m3041.63,44.65h-218.54v88.82c0,56.92-15.82,106.63-47.47,149.14l-13.16-11.91c26.84-36.13,41.3-73.52,43.39-112.17-21.1,15.14-33.63,23.81-37.6,26l-8.3-14.26c16.19-9.4,32.01-20.26,47.47-32.58V28.82h106.84c-2.09-4.8-6.16-11.75-12.22-20.83l16.45-6.11c3.34,5.95,8.04,14.94,14.1,26.94h109.03v15.82Zm-245.79,62.82l-14.41,8.62c-3.24-15.77-10.18-34.36-20.83-55.77l14.1-8.3c9.09,19.11,16.14,37.6,21.15,55.46Zm96.66,129.24c-12.53,12.74-31.8,25.8-57.81,39.16l-12.22-12.85c20.47-8.46,39.74-20.73,57.81-36.81l12.22,10.5Zm149.45-88.2l-8.62,15.04c-10.65-4.7-20.63-9.71-29.92-15.04v65.48h-61.88v46.84c0,9.4-2.9,15.48-8.7,18.25-5.8,2.77-14.23,4.15-25.3,4.15h-15.04l-5.48-16.29c7.52.52,14.15.78,19.9.78,8.35,0,13.55-.7,15.59-2.11s3.05-3.84,3.05-7.29v-44.33h-62.35v-65.48c-10.24,6.79-18.75,11.91-25.54,15.35l-10.34-13.47c15.56-7.52,27.88-14.98,36.97-22.4-8.15-8.15-17.39-15.61-27.73-22.4l11.59-11.59c13.79,10.44,23.29,18.38,28.51,23.81,10.44-8.35,19.43-19.27,26.95-32.74h-61.25v-15.2h69.71c2.61-5.01,5.38-11.07,8.3-18.17l17.39,2.82c-1.57,3.55-4.07,8.67-7.52,15.35h104.65v15.2h-77.23c6.79,10.86,15.77,21.3,26.95,31.33,11.17-6.58,21.41-14.67,30.71-24.28l11.91,11.91c-9.71,8.98-19.53,16.45-29.45,22.4,14.52,10.24,29.24,17.6,44.18,22.09Zm-54.83,11.59v-21.15h-107.47v21.15h107.47Zm0,38.85v-23.81h-107.47v23.81h107.47Zm-17.39-74.73c-13.16-12.22-23.29-25.27-30.39-39.16h-16.76c-10.65,17.34-20.37,30.39-29.14,39.16h76.29Zm69.08,141.46l-11.28,12.53c-18.17-13.99-38.59-26.32-61.25-36.97l9.87-12.22c21.41,8.98,42.3,21.2,62.66,36.66Z" style="fill:#40677c;"></path><path d="m3355.49,284.96h-16.61v-22.56h-218.22v20.84h-16.45V11.28h251.28v273.68Zm-16.61-37.6V25.38h-218.22v221.98h218.22Zm-15.2-186.11h-85.69v13.16h72.85v69.71h-17.86c8.67,9.61,16.03,18.9,22.09,27.88l-11.91,7.36c-1.46-2.61-3.6-5.85-6.42-9.71-49.92,4.18-102.3,7.1-157.13,8.77l-3.6-14.1c21.2-.31,49.76-1.3,85.69-2.98v-17.23h-71.91v-69.71h71.91v-13.16h-84.75v-12.85h84.75v-12.22h16.29v12.22h85.69v12.85Zm-.31,144.12h-38.85v12.85c0,6.58-2.4,11.38-7.21,14.41-4.8,3.03-13.89,4.54-27.26,4.54-7.31,0-13.11-.26-17.39-.78l-4.23-13.16c3.86.42,9.56.63,17.08.63,11.91,0,18.72-.55,20.44-1.65,1.72-1.1,2.58-2.64,2.58-4.62v-12.22h-132.22v-12.85h132.22v-13.47h15.98v13.47h38.85v12.85Zm-101.67-102.77v-15.04h-55.77v15.04h55.77Zm0,28.36v-15.82h-55.77v15.82h55.77Zm-15.67,99.32l-12.53,7.05c-6.79-8.77-13.42-15.61-19.9-20.52l12.22-7.99c8.15,5.01,14.88,12.17,20.21,21.46Zm88.51-127.68v-15.04h-56.55v15.04h56.55Zm0,28.36v-15.82h-56.55v15.82h56.55Zm-8.93,25.54l-7.83-8.3,5.8-4.07h-45.59v16.29c1.04,0,16.92-1.3,47.62-3.92Z" style="fill:#40677c;"></path><path d="m3531.97,25.69c0,.94-2.92,9.66-8.77,26.16-5.85,16.5-12.48,33.21-19.9,50.13,16.71,24.12,25.07,46.42,25.07,66.89,0,9.92-2.17,17.99-6.5,24.2-4.33,6.21-9.45,10.29-15.35,12.22-5.9,1.93-15.17,2.9-27.81,2.9l-7.36-16.61c4.18.42,8.25.63,12.22.63,11.8,0,19.55-2.01,23.26-6.03,3.71-4.02,5.56-9.42,5.56-16.21,0-7.42-2.09-17.13-6.27-29.14-4.18-12.01-11.07-24.28-20.68-36.81,13.58-31.33,23.18-57.44,28.82-78.33h-49.35v257.23h-16.45V9.56h83.5v16.14Zm183.76,36.5h-69.87c-8.36,9.5-18.43,18.7-30.23,27.57,13.58,19.11,22.35,37.65,26.32,55.61,26.11-21.83,44.49-40.99,55.14-57.49l14.1,9.71c-17.44,23.08-38.49,44.23-63.13,63.45,14.93,32.9,37.49,60.94,67.68,84.12l-10.18,12.06c-21.72-15.25-40.26-35.35-55.61-60.31.21,5.54.31,11.02.31,16.45,0,26.53-1.8,43.06-5.41,49.58-3.6,6.53-8.67,11.54-15.2,15.04-6.53,3.5-16.06,5.25-28.59,5.25h-16.92l-7.36-17.23c15.98.63,24.96.94,26.95.94,10.44,0,18.17-2.4,23.19-7.21,5.01-4.8,7.52-20.1,7.52-45.9,0-12.85-.68-23.81-2.04-32.9-27.16,26.84-64.28,53.58-111.38,80.21l-10.97-13.16c52.32-27.99,92.01-57.07,119.06-87.26-2.09-10.55-4.86-19.84-8.3-27.88-19.95,18.28-44.12,35.51-72.53,51.7l-10.65-12.85c32.79-18.27,57.96-36.5,75.51-54.67-2.51-5.43-6.06-11.38-10.65-17.86-23.08,13.79-45.74,24.7-67.99,32.74l-9.24-14.1c45.01-16.61,77.7-35.14,98.07-55.61h-86.32v-15.35h178.75v15.35Zm-109.35-29.45l-13.47,8.93c-9.5-11.59-19.06-21.41-28.67-29.45l12.85-9.71c8.04,5.43,17.8,15.51,29.29,30.24Zm83.65-22.4c-8.25,9.61-19.17,19.84-32.74,30.71l-14.1-10.18c11.91-9.19,22.4-18.64,31.49-28.36l15.35,7.83Z" style="fill:#40677c;"></path><g><path d="m58.55,480.43c-.6,2.72-1.4,5.25-2.4,7.58-1.2,2.72-2.66,5.12-4.4,7.2-2.07,2.4-4.46,4.33-7.19,5.78-1.93,1.01-4.5,1.8-7.69,2.37-2.66.51-5.79.82-9.39.95-2.66.13-5.79.16-9.39.09l-7.29-.09c-2.27,0-4.26-.76-5.99-2.27-1.87-1.71-2.8-3.79-2.8-6.25v-52.6c0-4.55,3.1-6.82,9.29-6.82h18.58c.4,0,.8.03,1.2.09,1.26.06,2.56.19,3.9.38,1.73.25,3.36.6,4.9,1.04,1.93.57,3.63,1.23,5.1,1.99,2.53,1.39,4.76,3.19,6.69,5.4,1.73,1.96,3.2,4.27,4.4,6.92,1,2.21,1.8,4.68,2.4,7.39.47,2.21.8,4.52,1,6.92.13,2.27.13,4.61,0,7.01-.13,2.4-.43,4.71-.9,6.92Zm-25.88-39.71c-1.13-.13-2.4-.22-3.8-.28h-15.19c-4.6,0-6.89,1.96-6.89,5.88v46.82c0,1.83.86,3.41,2.6,4.74,1.73,1.45,3.86,2.18,6.39,2.18h9.69c2.66,0,5.1-.13,7.29-.38,2.93-.38,5.26-.95,6.99-1.71,5.33-2.34,9.22-6.25,11.69-11.75,2.06-4.55,3.1-10.14,3.1-16.78,0-.76-.03-1.58-.1-2.46-.07-1.07-.17-2.15-.3-3.22-.4-2.72-1.03-5.24-1.9-7.58-1.13-2.97-2.6-5.53-4.4-7.68-2.13-2.59-4.73-4.55-7.79-5.88-2.07-.95-4.53-1.58-7.39-1.9Z" style="fill:#40677c; stroke:#40677c; stroke-miterlimit:10; stroke-width:4px;"></path><path d="m195.22,503.65c-5.66-3.85-10.42-8.44-14.29-13.74-.4-.57-.87-1.17-1.4-1.8l-1.3-1.61c-.2-.19-.3-.32-.3-.38l-2.7-3.41-1.7-2.37c-.73-.88-1.53-1.67-2.4-2.37-2-1.64-3.76-2.91-5.3-3.79-1.93-1.07-3.66-1.61-5.2-1.61l-13.99-.09v30.52c0,1.33-.73,1.96-2.2,1.9-1.53,0-2.3-.69-2.3-2.08v-57.91c0-5.75,2.6-8.63,7.79-8.63h22.58c6.13,0,10.86,1.23,14.19,3.7,4.66,3.41,6.99,8.12,6.99,14.12,0,4.99-1.73,9.07-5.2,12.23-3.86,3.41-9.43,5.4-16.68,5.97l.7.66c1.13.63,2.23,1.45,3.3,2.46l2.7,3.03c.47.51.96,1.14,1.5,1.9l3.7,4.83,3.1,3.6,3.7,3.89c2.6,2.72,5.36,5.12,8.29,7.2.66.44.93,1.14.8,2.08-.07.89-.43,1.52-1.1,1.9-1.13.63-2.23.57-3.3-.19Zm-44.76-63.03c-1.53,0-2.6.63-3.2,1.9-.4.89-.6,2.02-.6,3.41v22.08h20.68c2.4,0,4.43-.09,6.09-.28,2.33-.25,4.3-.66,5.89-1.23,2.73-1.01,4.86-2.4,6.39-4.17,1.93-2.21,2.9-4.93,2.9-8.15,0-5.24-2.33-8.94-6.99-11.09-2-1.01-4.4-1.74-7.19-2.18-2-.25-4.23-.38-6.69-.38l-17.28.09Z" style="fill:#40677c; stroke:#40677c; stroke-miterlimit:10; stroke-width:4px;"></path><path d="m358.97,502.7c0,1.33-.77,1.99-2.3,1.99-1.67.13-2.5-.51-2.5-1.9v-61.89h-21.48c-1.67,0-2.43-.82-2.3-2.46.13-1.45.9-2.18,2.3-2.18h48.16c1.73,0,2.53.82,2.4,2.46-.13,1.45-.93,2.18-2.4,2.18h-21.88v61.8Z" style="fill:#40677c; stroke:#40677c; stroke-miterlimit:10; stroke-width:4px;"></path><path d="m452.93,500.9c-5.06-3.47-8.03-9.07-8.89-16.78-.13-.95.17-1.67.9-2.18l1-.38c.27-.06.53-.09.8-.09,1.53.13,2.36.85,2.5,2.18l.3,2.18c.13.95.3,1.8.5,2.56.47,2.02,1.16,3.73,2.1,5.12,2.06,3.16,5.1,5.34,9.09,6.54,1.46.44,3.1.76,4.9.95,1.2.13,2.56.19,4.1.19,5.86,0,10.69-1.2,14.49-3.6,4.26-2.65,6.39-6.41,6.39-11.28,0-2.65-.7-4.93-2.1-6.82-1.2-1.58-2.93-2.91-5.2-3.98-1.8-.82-3.93-1.64-6.39-2.46-2.2-.69-4.43-1.29-6.69-1.8l-7.99-1.8c-3-.82-5.5-1.8-7.49-2.94-2.53-1.39-4.46-3.1-5.79-5.12-1.53-2.4-2.3-5.24-2.3-8.53,0-4.99,1.9-9.1,5.69-12.32,4.13-3.54,9.82-5.31,17.08-5.31,4.33,0,8.09.54,11.29,1.61,3.86,1.33,6.83,3.41,8.89,6.26,1.33,1.9,2.26,3.82,2.8,5.78.4,1.39.63,3.03.7,4.93-.07,1.14-.9,1.74-2.5,1.8-1.6,0-2.43-.54-2.5-1.61-.07-1.2-.27-2.43-.6-3.7-.53-1.77-1.33-3.38-2.4-4.83-1.4-1.77-3.23-3.16-5.5-4.17-2.73-1.2-6.03-1.8-9.89-1.8-5.53,0-9.96,1.17-13.29,3.51-3.33,2.4-5,5.53-5,9.38,0,4.74,2.3,8.28,6.89,10.62,1.8.89,4.13,1.71,6.99,2.46,1.13.32,2.46.63,4,.95l4.1.95c1.6.32,2.96.63,4.1.95,1.46.38,2.8.76,4,1.14,2.8.89,5.13,1.93,6.99,3.13,4.6,2.97,6.89,7.39,6.89,13.27,0,2.08-.37,4.14-1.1,6.16-.93,2.4-2.26,4.52-4,6.35-2.07,2.15-4.66,3.82-7.79,5.02-3.53,1.33-7.66,1.99-12.39,1.99-7.53,0-13.42-1.48-17.68-4.45Z" style="fill:#40677c; stroke:#40677c; stroke-miterlimit:10; stroke-width:4px;"></path><path d="m614.38,504.22h-39.16c-5.79,0-8.69-2.53-8.69-7.58l-.1-51.37c0-2.21.63-4.14,1.9-5.78,1.6-2.09,4-3.13,7.19-3.13h37.17c.93.19,1.5.89,1.7,2.09.13,1.26-.4,1.96-1.6,2.08h-36.97c-3.2,0-4.8,1.77-4.8,5.31l.1,21.33,38.96.09c1.13,0,1.7.7,1.7,2.08s-.57,2.09-1.7,2.09h-38.96l-.1,23.51c0,3.41,1.6,5.12,4.8,5.12h38.66c1,0,1.5.7,1.5,2.08.13,1.39-.4,2.09-1.6,2.09Z" style="fill:#40677c; stroke:#40677c; stroke-miterlimit:10; stroke-width:4px;"></path><path d="m710.09,443.37c-.27-.32-.57-.47-.9-.47s-.57.13-.7.38l.2,59.71c0,1.14-.77,1.77-2.3,1.9-1.53.13-2.3-.35-2.3-1.42v-64.07c0-1.77.87-2.84,2.6-3.22,1.8-.44,3.4.32,4.8,2.27l40.86,57.91c.33.44.7.66,1.1.66.33,0,.53-.16.6-.47v-59.24c0-1.58.8-2.37,2.4-2.37,1.46.13,2.2.79,2.2,1.99v63.6c0,1.96-.87,3.19-2.6,3.7-1.73.44-3.3-.32-4.7-2.27l-41.26-58.57Z" style="fill:#40677c; stroke:#40677c; stroke-miterlimit:10; stroke-width:4px;"></path><path d="m903.71,487.63c-.13,2.59-.97,5.02-2.5,7.3-1.13,1.64-2.7,3.32-4.7,5.02l-2.1,1.23c-.8.44-1.5.79-2.1,1.04-1.4.76-2.8,1.33-4.2,1.71-3.13.88-7.49,1.36-13.09,1.42-10.19.06-18.58-2.69-25.18-8.25-3.53-2.91-6.19-6.44-7.99-10.62-2-4.49-3-9.57-3-15.26.07-11.75,3.56-20.82,10.49-27.2,6.39-5.88,14.82-8.81,25.28-8.81,5.26,0,9.89.76,13.89,2.27,3.33,1.27,6.19,3.07,8.59,5.4,1.86,1.77,3.4,3.86,4.6,6.26l1.2,2.84.7,2.27c.47,1.26-.07,2.18-1.6,2.75-1.47.38-2.36,0-2.7-1.14-.07-.32-.17-.63-.3-.95l-.4-1.04c-.27-.82-.6-1.64-1-2.46-1.07-2.02-2.4-3.79-4-5.31-2-1.9-4.4-3.38-7.19-4.45-3.4-1.26-7.29-1.93-11.69-1.99-9.39-.13-16.92,2.69-22.58,8.44-5.53,5.69-8.29,13.17-8.29,22.46,0,5.94,1.03,11.06,3.1,15.35,1.8,3.79,4.33,6.89,7.59,9.29,2.8,2.08,6.06,3.63,9.79,4.64,2.93.82,6.03,1.3,9.29,1.42,7.93.25,14.45-1.17,19.58-4.26,1-.88,2.13-2.09,3.4-3.6,1.6-2.02,2.43-3.79,2.5-5.31l.3-5.21c.33-4.93-1.1-7.39-4.3-7.39h-17.28c-1.2-.51-1.8-1.26-1.8-2.27,0-.95.57-1.64,1.7-2.08l19.68.19c2.86.06,4.8,1.39,5.79,3.98.73,1.9,1,4.36.8,7.39l-.3,4.93Z" style="fill:#40677c; stroke:#40677c; stroke-miterlimit:10; stroke-width:4px;"></path><path d="m1166.27,482.32h-36.87l-9.59,21.32c-.4.88-1.37,1.2-2.9.95-1.53-.25-2.2-1.04-2-2.37l29.67-66.35c.53-1.14,1.4-1.71,2.6-1.71s2.23.6,3.1,1.8l30.77,65.49c.2,1.58-.23,2.56-1.3,2.94-.8.25-1.77.13-2.9-.38l-10.59-21.7Zm-18.68-40.66c-.07-.25-.17-.38-.3-.38s-.23.09-.3.28l-16.19,36.59h33.97l-17.18-36.49Z" style="fill:#40677c; stroke:#40677c; stroke-miterlimit:10; stroke-width:4px;"></path><path d="m1251.19,502.79c0,1.33-.73,1.99-2.2,1.99s-2.3-.63-2.3-1.9v-65.02c0-1.33.76-1.99,2.3-1.99s2.2.6,2.2,1.8v65.11Z" style="fill:#40677c; stroke:#40677c; stroke-miterlimit:10; stroke-width:4px;"></path><path d="m1313.64,502.79c0,1.33-.73,1.99-2.2,1.99s-2.3-.63-2.3-1.9v-65.02c0-1.33.76-1.99,2.3-1.99s2.2.6,2.2,1.8v65.11Z" style="fill:#40677c; stroke:#40677c; stroke-miterlimit:10; stroke-width:4px;"></path><path d="m1390.56,477.77c1.26,0,1.9.63,1.9,1.9,0,1.33-.63,1.99-1.9,1.99h-22.38c-1.27,0-1.9-.66-1.9-1.99s.63-1.9,1.9-1.9h22.38Z" style="fill:#40677c; stroke:#40677c; stroke-miterlimit:10; stroke-width:4px;"></path><path d="m1447.31,497.87c-4.13-4.61-6.16-10.71-6.09-18.29.13-17.31,7.83-25.97,23.08-25.97,7.13,0,12.72,2.18,16.78,6.54,4.26,4.55,6.39,11.03,6.39,19.43,0,7.71-1.87,13.78-5.6,18.2-4.06,4.8-9.93,7.2-17.58,7.2-7.13,0-12.79-2.37-16.98-7.11Zm17.28-40.38c-5.99,0-10.72,2.09-14.19,6.26-3.2,3.98-4.83,9.23-4.9,15.73-.07,6.89,1.86,12.38,5.79,16.49,3.66,3.86,8.23,5.72,13.69,5.59,5.33-.13,9.62-2.05,12.89-5.78,3.4-3.98,5.1-9.35,5.1-16.11s-1.7-12.42-5.1-16.4c-3.33-3.85-7.79-5.78-13.39-5.78h.1Z" style="fill:#40677c; stroke:#40677c; stroke-miterlimit:10; stroke-width:4px;"></path><path d="m1575.79,470.66c0-1.07-.03-2.02-.1-2.84-.27-2.21-.8-3.79-1.6-4.74-3-3.22-7.06-4.83-12.19-4.83-6.93,0-12.09,3.35-15.49,10.05-1.13,2.27-1.7,7.11-1.7,14.5v19.9c0,1.2-.73,1.8-2.2,1.8s-2.3-.6-2.3-1.8v-47.67c0-1.58.77-2.4,2.3-2.46,1.46,0,2.2.79,2.2,2.37v8.63l1.7-1.99c.53-.63,1.03-1.17,1.5-1.61,1.13-1.2,2.26-2.18,3.4-2.94,3.06-2.02,6.73-3.03,10.99-3.03,3.46,0,6.63.6,9.49,1.8,1.13.44,2.16.95,3.1,1.52.73.51,1.36,1.01,1.9,1.52.93.89,1.66,1.96,2.2,3.22.4.95.73,2.15,1,3.6.2,1.01.3,2.15.3,3.41l-.1,33.93c0,1.14-.73,1.77-2.2,1.9-1.47.06-2.2-.54-2.2-1.8v-32.41Z" style="fill:#40677c; stroke:#40677c; stroke-miterlimit:10; stroke-width:4px;"></path><path d="m1655.72,477.77c1.26,0,1.9.63,1.9,1.9,0,1.33-.63,1.99-1.9,1.99h-22.38c-1.27,0-1.9-.66-1.9-1.99s.63-1.9,1.9-1.9h22.38Z" style="fill:#40677c; stroke:#40677c; stroke-miterlimit:10; stroke-width:4px;"></path><path d="m1743.64,487.44l-.1,15.35c0,1.26-.7,1.93-2.1,1.99-1.4.06-2.1-.47-2.1-1.61v-15.73h-31.67c-1.33,0-2.27-.57-2.8-1.71-.53-1.14-.37-2.31.5-3.51l33.17-43.88c.8-1.07,1.86-1.39,3.2-.95,1.26.44,1.9,1.3,1.9,2.56v43.41h8.09c1.46,0,2.2.73,2.2,2.18,0,1.27-.7,1.9-2.1,1.9h-8.19Zm-4.4-42.18c0-.32-.07-.5-.2-.57-.2-.06-.4.06-.6.38l-28.17,37.53c-.13.19-.13.38,0,.57.13.19.47.28,1,.28h27.97v-38.2Z" style="fill:#40677c; stroke:#40677c; stroke-miterlimit:10; stroke-width:4px;"></path><path d="m2011.19,480.43c-.6,2.72-1.4,5.25-2.4,7.58-1.2,2.72-2.66,5.12-4.4,7.2-2.07,2.4-4.46,4.33-7.19,5.78-1.93,1.01-4.5,1.8-7.69,2.37-2.66.51-5.79.82-9.39.95-2.66.13-5.79.16-9.39.09l-7.29-.09c-2.26,0-4.26-.76-5.99-2.27-1.87-1.71-2.8-3.79-2.8-6.25v-52.6c0-4.55,3.1-6.82,9.29-6.82h18.58c.4,0,.8.03,1.2.09,1.26.06,2.56.19,3.9.38,1.73.25,3.36.6,4.9,1.04,1.93.57,3.63,1.23,5.09,1.99,2.53,1.39,4.76,3.19,6.69,5.4,1.73,1.96,3.2,4.27,4.4,6.92,1,2.21,1.8,4.68,2.4,7.39.47,2.21.8,4.52,1,6.92.13,2.27.13,4.61,0,7.01-.13,2.4-.43,4.71-.9,6.92Zm-25.88-39.71c-1.13-.13-2.4-.22-3.8-.28h-15.19c-4.6,0-6.89,1.96-6.89,5.88v46.82c0,1.83.86,3.41,2.6,4.74,1.73,1.45,3.86,2.18,6.39,2.18h9.69c2.66,0,5.1-.13,7.29-.38,2.93-.38,5.26-.95,6.99-1.71,5.33-2.34,9.22-6.25,11.69-11.75,2.06-4.55,3.1-10.14,3.1-16.78,0-.76-.03-1.58-.1-2.46-.07-1.07-.17-2.15-.3-3.22-.4-2.72-1.03-5.24-1.9-7.58-1.13-2.97-2.6-5.53-4.4-7.68-2.13-2.59-4.73-4.55-7.79-5.88-2.07-.95-4.53-1.58-7.39-1.9Z" style="fill:#40677c; stroke:#40677c; stroke-miterlimit:10; stroke-width:4px;"></path><path d="m2146.77,504.22h-39.16c-5.79,0-8.69-2.53-8.69-7.58l-.1-51.37c0-2.21.63-4.14,1.9-5.78,1.6-2.09,4-3.13,7.19-3.13h37.17c.93.19,1.5.89,1.7,2.09.13,1.26-.4,1.96-1.6,2.08h-36.97c-3.2,0-4.8,1.77-4.8,5.31l.1,21.33,38.96.09c1.13,0,1.7.7,1.7,2.08s-.57,2.09-1.7,2.09h-38.96l-.1,23.51c0,3.41,1.6,5.12,4.8,5.12h38.66c1,0,1.5.7,1.5,2.08.13,1.39-.4,2.09-1.6,2.09Z" style="fill:#40677c; stroke:#40677c; stroke-miterlimit:10; stroke-width:4px;"></path><path d="m2242.48,443.37c-.27-.32-.57-.47-.9-.47s-.57.13-.7.38l.2,59.71c0,1.14-.77,1.77-2.3,1.9-1.53.13-2.3-.35-2.3-1.42v-64.07c0-1.77.86-2.84,2.6-3.22,1.8-.44,3.4.32,4.8,2.27l40.86,57.91c.33.44.7.66,1.1.66.33,0,.53-.16.6-.47v-59.24c0-1.58.8-2.37,2.4-2.37,1.46.13,2.2.79,2.2,1.99v63.6c0,1.96-.87,3.19-2.6,3.7-1.73.44-3.3-.32-4.7-2.27l-41.26-58.57Z" style="fill:#40677c; stroke:#40677c; stroke-miterlimit:10; stroke-width:4px;"></path><path d="m2405.93,440.71l-.1,62.08c-.27,1.33-1.1,1.99-2.5,1.99s-2.2-.66-2.2-1.99l-.1-61.99-21.38-.09c-1.13,0-1.73-.76-1.8-2.27-.07-1.45.5-2.18,1.7-2.18h48.16c1.53,0,2.3.76,2.3,2.27s-.67,2.27-2,2.27l-22.08-.09Z" style="fill:#40677c; stroke:#40677c; stroke-miterlimit:10; stroke-width:4px;"></path><path d="m2562.59,482.32h-36.87l-9.59,21.32c-.4.88-1.37,1.2-2.9.95-1.53-.25-2.2-1.04-2-2.37l29.67-66.35c.53-1.14,1.4-1.71,2.6-1.71s2.23.6,3.1,1.8l30.77,65.49c.2,1.58-.23,2.56-1.3,2.94-.8.25-1.77.13-2.9-.38l-10.59-21.7Zm-18.68-40.66c-.07-.25-.17-.38-.3-.38s-.23.09-.3.28l-16.19,36.59h33.97l-17.18-36.49Z" style="fill:#40677c; stroke:#40677c; stroke-miterlimit:10; stroke-width:4px;"></path><path d="m2704.16,504.31l-33.97-.09c-5.46,0-8.19-3.47-8.19-10.43l-.1-56.39c0-1.26.8-1.93,2.4-1.99,1.53-.13,2.3.54,2.3,1.99v56.01c0,4.42,2,6.63,5.99,6.63h32.17c1.2.32,1.8,1.04,1.8,2.18.13,1.39-.67,2.08-2.4,2.08Z" style="fill:#40677c; stroke:#40677c; stroke-miterlimit:10; stroke-width:4px;"></path><path d="m2899.2,502.41c0,1.39-.77,2.08-2.3,2.08-1.53.06-2.3-.57-2.3-1.9l.1-62.93c0-1.33.77-1.99,2.3-1.99s2.2.7,2.2,2.09v62.65Z" style="fill:#40677c; stroke:#40677c; stroke-miterlimit:10; stroke-width:4px;"></path><path d="m3069.75,502.23c.07,1.83-.7,2.75-2.3,2.75-1.47,0-2.2-.66-2.2-1.99v-61.7c0-.38-.23-.54-.7-.47-.47.06-.83.25-1.1.57l-23.58,61.51c-.33.89-1.23,1.39-2.7,1.52-1.53.13-2.5-.28-2.9-1.23l-23.58-61.23c-.13-.44-.43-.63-.9-.57-.4.06-.67.28-.8.66l-.1,61.13c0,1.33-.73,1.93-2.2,1.8-1.53-.06-2.3-.7-2.3-1.9l.1-61.99c0-1.14.5-2.24,1.5-3.32,1-1.07,2-1.58,3-1.52,3-.25,4.93.79,5.79,3.13l22.08,58.76,22.98-59.24c1.2-2.34,3.16-3.16,5.89-2.46,2.66.63,4,2.05,4,4.27v61.51Z" style="fill:#40677c; stroke:#40677c; stroke-miterlimit:10; stroke-width:4px;"></path><path d="m3200.23,461.76c-.8,2.46-2.03,4.61-3.7,6.44-1.86,2.02-4.23,3.6-7.09,4.74-3.2,1.26-6.93,1.9-11.19,1.9h-20.48l-.1,27.58c0,1.52-.63,2.31-1.9,2.37-1.67.13-2.5-.69-2.5-2.46v-56.39c0-6.19,2.5-9.35,7.49-9.48l17.48-.19c2.46,0,4.9.22,7.29.66,2.86.51,5.16,1.3,6.89,2.37,5.79,3.6,8.72,8.85,8.79,15.73,0,2.34-.33,4.58-1,6.73Zm-37.07-21.23c-3.53,0-5.29,1.77-5.29,5.31v24.83h18.98c2.33,0,4.5-.19,6.49-.57,2.46-.44,4.6-1.14,6.39-2.09,4.53-2.46,6.79-6.57,6.79-12.32,0-3.47-.83-6.38-2.5-8.72-1.33-1.9-3.26-3.38-5.79-4.45-1.93-.82-4.16-1.39-6.69-1.71-.93-.13-1.9-.22-2.9-.28h-15.49Z" style="fill:#40677c; stroke:#40677c; stroke-miterlimit:10; stroke-width:4px;"></path><path d="m3337.3,504.31l-33.97-.09c-5.46,0-8.19-3.47-8.19-10.43l-.1-56.39c0-1.26.8-1.93,2.4-1.99,1.53-.13,2.3.54,2.3,1.99v56.01c0,4.42,2,6.63,5.99,6.63h32.17c1.2.32,1.8,1.04,1.8,2.18.13,1.39-.67,2.08-2.4,2.08Z" style="fill:#40677c; stroke:#40677c; stroke-miterlimit:10; stroke-width:4px;"></path><path d="m3476.08,482.32h-36.87l-9.59,21.32c-.4.88-1.37,1.2-2.9.95-1.53-.25-2.2-1.04-2-2.37l29.67-66.35c.53-1.14,1.4-1.71,2.6-1.71s2.23.6,3.1,1.8l30.77,65.49c.2,1.58-.23,2.56-1.3,2.94-.8.25-1.77.13-2.9-.38l-10.59-21.7Zm-18.68-40.66c-.07-.25-.17-.38-.3-.38s-.23.09-.3.28l-16.19,36.59h33.97l-17.18-36.49Z" style="fill:#40677c; stroke:#40677c; stroke-miterlimit:10; stroke-width:4px;"></path><path d="m3576.48,443.37c-.27-.32-.57-.47-.9-.47s-.57.13-.7.38l.2,59.71c0,1.14-.77,1.77-2.3,1.9-1.53.13-2.3-.35-2.3-1.42v-64.07c0-1.77.86-2.84,2.6-3.22,1.8-.44,3.4.32,4.8,2.27l40.86,57.91c.33.44.7.66,1.1.66.33,0,.53-.16.6-.47v-59.24c0-1.58.8-2.37,2.4-2.37,1.46.13,2.2.79,2.2,1.99v63.6c0,1.96-.87,3.19-2.6,3.7-1.73.44-3.3-.32-4.7-2.27l-41.26-58.57Z" style="fill:#40677c; stroke:#40677c; stroke-miterlimit:10; stroke-width:4px;"></path><path d="m3739.93,440.71l-.1,62.08c-.27,1.33-1.1,1.99-2.5,1.99s-2.2-.66-2.2-1.99l-.1-61.99-21.38-.09c-1.13,0-1.73-.76-1.8-2.27-.07-1.45.5-2.18,1.7-2.18h48.16c1.53,0,2.3.76,2.3,2.27s-.67,2.27-2,2.27l-22.08-.09Z" style="fill:#40677c; stroke:#40677c; stroke-miterlimit:10; stroke-width:4px;"></path></g><ellipse cx="408.43" cy="498.1" rx="8.18" ry="7.76" style="fill:#40677c; stroke:#40677c; stroke-miterlimit:10; stroke-width:.25px;"></ellipse></g></g></svg> 